<svg width="261" height="71" viewBox="0 0 261 71" fill="none" xmlns="http://www.w3.org/2000/svg">
<path d="M10.45 48V22.15H0.2V13H32.5V22.15H22.25V48H10.45ZM46.3648 26H61.9648V34.5H46.3648V26ZM47.1648 39.1H64.6648V48H35.5648V13H64.0148V21.9H47.1648V39.1ZM69.2074 48V13H86.4574C90.3574 13 93.7908 13.7167 96.7574 15.15C99.7241 16.55 102.041 18.55 103.707 21.15C105.374 23.75 106.207 26.85 106.207 30.45C106.207 34.0833 105.374 37.2167 103.707 39.85C102.041 42.45 99.7241 44.4667 96.7574 45.9C93.7908 47.3 90.3574 48 86.4574 48H69.2074ZM81.0074 38.8H85.9574C87.6241 38.8 89.0741 38.4833 90.3074 37.85C91.5741 37.2167 92.5574 36.2833 93.2574 35.05C93.9574 33.7833 94.3074 32.25 94.3074 30.45C94.3074 28.6833 93.9574 27.1833 93.2574 25.95C92.5574 24.7167 91.5741 23.7833 90.3074 23.15C89.0741 22.5167 87.6241 22.2 85.9574 22.2H81.0074V38.8Z" fill="#EB0028"/>
<path d="M145.9 48.4C143.233 48.4 140.767 47.9667 138.5 47.1C136.267 46.2 134.317 44.95 132.65 43.35C131.017 41.7167 129.733 39.8167 128.8 37.65C127.867 35.4833 127.4 33.1 127.4 30.5C127.4 27.9 127.867 25.5167 128.8 23.35C129.733 21.1833 131.033 19.3 132.7 17.7C134.367 16.0667 136.317 14.8167 138.55 13.95C140.817 13.05 143.283 12.6 145.95 12.6C148.65 12.6 151.133 13.0667 153.4 14C155.7 14.9 157.65 16.25 159.25 18.05L156 21.2C154.667 19.8 153.167 18.7667 151.5 18.1C149.833 17.4 148.05 17.05 146.15 17.05C144.183 17.05 142.35 17.3833 140.65 18.05C138.983 18.7167 137.533 19.65 136.3 20.85C135.067 22.05 134.1 23.4833 133.4 25.15C132.733 26.7833 132.4 28.5667 132.4 30.5C132.4 32.4333 132.733 34.2333 133.4 35.9C134.1 37.5333 135.067 38.95 136.3 40.15C137.533 41.35 138.983 42.2833 140.65 42.95C142.35 43.6167 144.183 43.95 146.15 43.95C148.05 43.95 149.833 43.6167 151.5 42.95C153.167 42.25 154.667 41.1833 156 39.75L159.25 42.9C157.65 44.7 155.7 46.0667 153.4 47C151.133 47.9333 148.633 48.4 145.9 48.4ZM181.3 48.4C178.634 48.4 176.167 47.9667 173.9 47.1C171.667 46.2 169.717 44.95 168.05 43.35C166.417 41.7167 165.134 39.8167 164.2 37.65C163.267 35.4833 162.8 33.1 162.8 30.5C162.8 27.9 163.267 25.5167 164.2 23.35C165.134 21.1833 166.434 19.3 168.1 17.7C169.767 16.0667 171.717 14.8167 173.95 13.95C176.217 13.05 178.684 12.6 181.35 12.6C184.05 12.6 186.534 13.0667 188.8 14C191.1 14.9 193.05 16.25 194.65 18.05L191.4 21.2C190.067 19.8 188.567 18.7667 186.9 18.1C185.234 17.4 183.45 17.05 181.55 17.05C179.584 17.05 177.75 17.3833 176.05 18.05C174.384 18.7167 172.934 19.65 171.7 20.85C170.467 22.05 169.5 23.4833 168.8 25.15C168.134 26.7833 167.8 28.5667 167.8 30.5C167.8 32.4333 168.134 34.2333 168.8 35.9C169.5 37.5333 170.467 38.95 171.7 40.15C172.934 41.35 174.384 42.2833 176.05 42.95C177.75 43.6167 179.584 43.95 181.55 43.95C183.45 43.95 185.234 43.6167 186.9 42.95C188.567 42.25 190.067 41.1833 191.4 39.75L194.65 42.9C193.05 44.7 191.1 46.0667 188.8 47C186.534 47.9333 184.034 48.4 181.3 48.4ZM206.333 28.1H224.333V32.35H206.333V28.1ZM206.783 43.65H227.183V48H201.783V13H226.483V17.35H206.783V43.65ZM242.229 48V17.35H230.229V13H259.179V17.35H247.179V48H242.229Z" fill="white"/>
<path d="M106.95 32.5L114.6 21.875L114.575 25.4L107.225 15H112.8L117.5 21.775L115.125 21.8L119.75 15H125.1L117.75 25.2V21.7L125.5 32.5H119.8L115.025 25.375H117.3L112.6 32.5H106.95Z" fill="#EB0028"/>
<path d="M3.10797 67.7754L6.51332 62.9392V64.1066L3.26958 59.4372H4.96648L7.37908 62.8916L6.68647 62.9035L9.07598 59.4372H10.7036L7.48297 64.0232V62.9035L10.9114 67.7754H9.17987L6.64029 64.1066H7.32136L4.81642 67.7754H3.10797Z" fill="#EB0028"/>
<path d="M254.629 67.8469C253.998 67.8469 253.509 67.6762 253.162 67.3347C252.815 66.9932 252.642 66.5049 252.642 65.8696V60.0805H253.777V65.8219C253.777 66.1634 253.86 66.4255 254.026 66.6081C254.199 66.7907 254.443 66.8821 254.759 66.8821C255.113 66.8821 255.409 66.7828 255.645 66.5843L256 67.4062C255.827 67.5571 255.618 67.6682 255.374 67.7397C255.137 67.8112 254.889 67.8469 254.629 67.8469ZM251.578 62.4033V61.4622H255.575V62.4033H251.578Z" fill="white"/>
<path d="M247.301 61.4026C247.814 61.4026 248.263 61.5019 248.649 61.7004C249.043 61.899 249.351 62.2007 249.572 62.6057C249.792 63.0107 249.903 63.5229 249.903 64.1423V67.7754H248.767V64.2734C248.767 63.6619 248.618 63.2013 248.318 62.8916C248.026 62.5819 247.613 62.4271 247.077 62.4271C246.675 62.4271 246.324 62.5065 246.024 62.6653C245.725 62.8241 245.492 63.0584 245.327 63.3681C245.169 63.6778 245.09 64.0629 245.09 64.5235V67.7754H243.955V61.4622H245.043V63.1656L244.865 62.7129C245.07 62.3 245.386 61.9784 245.811 61.7481C246.237 61.5178 246.734 61.4026 247.301 61.4026Z" fill="white"/>
<path d="M239.032 67.8469C238.362 67.8469 237.771 67.7079 237.259 67.43C236.754 67.152 236.36 66.7709 236.076 66.2865C235.8 65.802 235.662 65.2462 235.662 64.6188C235.662 63.9915 235.796 63.4356 236.065 62.9512C236.34 62.4668 236.715 62.0896 237.188 61.8196C237.669 61.5416 238.209 61.4026 238.808 61.4026C239.415 61.4026 239.951 61.5376 240.416 61.8076C240.881 62.0776 241.244 62.4588 241.504 62.9512C241.772 63.4356 241.906 64.0034 241.906 64.6545C241.906 64.7022 241.902 64.7578 241.894 64.8213C241.894 64.8848 241.89 64.9444 241.882 65H236.549V64.1781H241.291L240.83 64.464C240.838 64.059 240.755 63.6976 240.581 63.38C240.408 63.0623 240.168 62.8162 239.86 62.6415C239.561 62.4588 239.21 62.3675 238.808 62.3675C238.414 62.3675 238.063 62.4588 237.755 62.6415C237.448 62.8162 237.208 63.0663 237.034 63.3919C236.861 63.7096 236.774 64.0748 236.774 64.4878V64.6784C236.774 65.0993 236.869 65.4765 237.058 65.81C237.255 66.1356 237.527 66.3897 237.874 66.5723C238.22 66.755 238.619 66.8463 239.068 66.8463C239.438 66.8463 239.773 66.7828 240.073 66.6557C240.38 66.5287 240.648 66.3381 240.877 66.084L241.504 66.8225C241.22 67.156 240.865 67.4101 240.44 67.5848C240.022 67.7595 239.553 67.8469 239.032 67.8469Z" fill="white"/>
<path d="M230.981 67.7754L228.237 61.4622H229.42L231.856 67.1798H231.288L233.771 61.4622H234.883L232.139 67.7754H230.981Z" fill="white"/>
<path d="M224.53 67.8469C223.86 67.8469 223.269 67.7079 222.756 67.43C222.252 67.152 221.858 66.7709 221.574 66.2865C221.298 65.802 221.16 65.2462 221.16 64.6188C221.16 63.9915 221.294 63.4356 221.562 62.9512C221.838 62.4668 222.213 62.0896 222.686 61.8196C223.166 61.5416 223.706 61.4026 224.305 61.4026C224.912 61.4026 225.448 61.5376 225.914 61.8076C226.379 62.0776 226.741 62.4588 227.001 62.9512C227.269 63.4356 227.403 64.0034 227.403 64.6545C227.403 64.7022 227.399 64.7578 227.392 64.8213C227.392 64.8848 227.388 64.9444 227.38 65H222.047V64.1781H226.789L226.327 64.464C226.335 64.059 226.253 63.6976 226.079 63.38C225.906 63.0623 225.665 62.8162 225.358 62.6415C225.058 62.4588 224.707 62.3675 224.305 62.3675C223.911 62.3675 223.561 62.4588 223.253 62.6415C222.946 62.8162 222.705 63.0663 222.532 63.3919C222.358 63.7096 222.272 64.0748 222.272 64.4878V64.6784C222.272 65.0993 222.366 65.4765 222.555 65.81C222.753 66.1356 223.024 66.3897 223.371 66.5723C223.718 66.755 224.116 66.8463 224.566 66.8463C224.936 66.8463 225.271 66.7828 225.571 66.6557C225.878 66.5287 226.146 66.3381 226.375 66.084L227.001 66.8225C226.718 67.156 226.363 67.4101 225.937 67.5848C225.519 67.7595 225.05 67.8469 224.53 67.8469Z" fill="white"/>
<path d="M208.015 67.7754V59.4372H211.503C212.386 59.4372 213.162 59.6119 213.832 59.9613C214.51 60.3107 215.034 60.7991 215.405 61.4265C215.783 62.0538 215.972 62.7804 215.972 63.6063C215.972 64.4322 215.783 65.1588 215.405 65.7861C215.034 66.4135 214.51 66.9019 213.832 67.2513C213.162 67.6007 212.386 67.7754 211.503 67.7754H208.015ZM209.197 66.7391H211.432C212.118 66.7391 212.709 66.6081 213.206 66.346C213.71 66.0839 214.1 65.7186 214.376 65.2501C214.652 64.7736 214.79 64.2257 214.79 63.6063C214.79 62.9789 214.652 62.431 214.376 61.9625C214.1 61.494 213.71 61.1287 213.206 60.8666C212.709 60.6045 212.118 60.4735 211.432 60.4735H209.197V66.7391Z" fill="white"/>
<path d="M200.696 63.0345H204.953V64.047H200.696V63.0345ZM200.803 66.7391H205.627V67.7754H199.62V59.4372H205.461V60.4735H200.803V66.7391Z" fill="white"/>
<path d="M193.851 67.7754V60.4735H191.013V59.4372H197.859V60.4735H195.022V67.7754H193.851Z" fill="white"/>
<path d="M182.45 67.8469C181.843 67.8469 181.299 67.7119 180.818 67.4419C180.345 67.1719 179.971 66.7947 179.695 66.3102C179.419 65.8258 179.281 65.262 179.281 64.6188C179.281 63.9755 179.419 63.4157 179.695 62.9392C179.971 62.4548 180.345 62.0776 180.818 61.8076C181.299 61.5376 181.843 61.4026 182.45 61.4026C182.978 61.4026 183.455 61.5217 183.881 61.76C184.307 61.9982 184.646 62.3556 184.898 62.832C185.158 63.3085 185.288 63.9041 185.288 64.6188C185.288 65.3335 185.162 65.9291 184.91 66.4055C184.665 66.882 184.33 67.2433 183.905 67.4895C183.479 67.7277 182.994 67.8469 182.45 67.8469ZM182.545 66.8463C182.939 66.8463 183.294 66.755 183.609 66.5723C183.932 66.3897 184.184 66.1316 184.366 65.798C184.555 65.4566 184.65 65.0635 184.65 64.6188C184.65 64.1661 184.555 63.777 184.366 63.4514C184.184 63.1179 183.932 62.8598 183.609 62.6772C183.294 62.4945 182.939 62.4032 182.545 62.4032C182.143 62.4032 181.784 62.4945 181.469 62.6772C181.153 62.8598 180.901 63.1179 180.712 63.4514C180.523 63.777 180.428 64.1661 180.428 64.6188C180.428 65.0635 180.523 65.4566 180.712 65.798C180.901 66.1316 181.153 66.3897 181.469 66.5723C181.784 66.755 182.143 66.8463 182.545 66.8463ZM184.685 67.7754V66.072L184.756 64.6069L184.638 63.1417V58.9369H185.773V67.7754H184.685Z" fill="white"/>
<path d="M174.938 67.8469C174.268 67.8469 173.677 67.7079 173.164 67.43C172.66 67.152 172.266 66.7709 171.982 66.2865C171.706 65.802 171.568 65.2462 171.568 64.6188C171.568 63.9915 171.702 63.4356 171.97 62.9512C172.246 62.4668 172.62 62.0896 173.093 61.8196C173.574 61.5416 174.114 61.4026 174.713 61.4026C175.32 61.4026 175.856 61.5376 176.322 61.8076C176.787 62.0776 177.149 62.4588 177.409 62.9512C177.677 63.4356 177.811 64.0034 177.811 64.6545C177.811 64.7022 177.807 64.7578 177.8 64.8213C177.8 64.8848 177.796 64.9444 177.788 65H172.455V64.1781H177.197L176.735 64.464C176.743 64.059 176.66 63.6976 176.487 63.38C176.314 63.0623 176.073 62.8162 175.766 62.6415C175.466 62.4588 175.115 62.3675 174.713 62.3675C174.319 62.3675 173.968 62.4588 173.661 62.6415C173.354 62.8162 173.113 63.0663 172.94 63.3919C172.766 63.7096 172.68 64.0748 172.68 64.4878V64.6784C172.68 65.0993 172.774 65.4765 172.963 65.81C173.16 66.1356 173.432 66.3897 173.779 66.5723C174.126 66.755 174.524 66.8463 174.974 66.8463C175.344 66.8463 175.679 66.7828 175.979 66.6557C176.286 66.5287 176.554 66.3381 176.783 66.084L177.409 66.8225C177.126 67.156 176.771 67.4101 176.345 67.5848C175.927 67.7595 175.458 67.8469 174.938 67.8469Z" fill="white"/>
<path d="M164.998 67.7754V67.0369L169.018 62.0102L169.242 62.4032H165.069V61.4622H170.153V62.2127L166.133 67.2275L165.873 66.8344H170.248V67.7754H164.998Z" fill="white"/>
<path d="M161.825 67.7754V61.4622H162.96V67.7754H161.825ZM162.393 60.2472C162.172 60.2472 161.987 60.1757 161.837 60.0328C161.695 59.8899 161.624 59.7151 161.624 59.5087C161.624 59.2943 161.695 59.1156 161.837 58.9727C161.987 58.8297 162.172 58.7582 162.393 58.7582C162.613 58.7582 162.795 58.8297 162.937 58.9727C163.086 59.1077 163.161 59.2784 163.161 59.4849C163.161 59.6993 163.09 59.8819 162.948 60.0328C162.807 60.1757 162.621 60.2472 162.393 60.2472Z" fill="white"/>
<path d="M156.65 61.4026C157.163 61.4026 157.612 61.5019 157.998 61.7004C158.392 61.899 158.7 62.2007 158.92 62.6057C159.141 63.0107 159.251 63.5229 159.251 64.1423V67.7754H158.116V64.2734C158.116 63.6619 157.967 63.2013 157.667 62.8916C157.375 62.5819 156.961 62.4271 156.425 62.4271C156.023 62.4271 155.673 62.5065 155.373 62.6653C155.074 62.8241 154.841 63.0584 154.675 63.3681C154.518 63.6778 154.439 64.0629 154.439 64.5235V67.7754H153.304V61.4622H154.392V63.1656L154.214 62.7129C154.419 62.3 154.735 61.9784 155.16 61.7481C155.586 61.5178 156.083 61.4026 156.65 61.4026Z" fill="white"/>
<path d="M149.654 67.7754V66.4413L149.595 66.1912V63.916C149.595 63.4316 149.453 63.0584 149.17 62.7963C148.894 62.5263 148.476 62.3913 147.916 62.3913C147.546 62.3913 147.183 62.4549 146.828 62.5819C146.474 62.701 146.174 62.8638 145.93 63.0703L145.457 62.2126C145.78 61.9506 146.166 61.7521 146.615 61.6171C147.073 61.4741 147.55 61.4026 148.046 61.4026C148.905 61.4026 149.568 61.6131 150.033 62.034C150.498 62.4549 150.73 63.0981 150.73 63.9637V67.7754H149.654ZM147.597 67.8469C147.132 67.8469 146.722 67.7675 146.367 67.6087C146.02 67.4498 145.752 67.2315 145.563 66.9535C145.374 66.6676 145.279 66.346 145.279 65.9887C145.279 65.6472 145.358 65.3375 145.516 65.0595C145.681 64.7816 145.945 64.5593 146.308 64.3925C146.679 64.2257 147.175 64.1423 147.798 64.1423H149.784V64.9643H147.845C147.278 64.9643 146.895 65.0595 146.698 65.2501C146.501 65.4407 146.403 65.671 146.403 65.941C146.403 66.2507 146.525 66.5009 146.769 66.6915C147.014 66.8741 147.352 66.9654 147.786 66.9654C148.212 66.9654 148.582 66.8701 148.898 66.6795C149.221 66.489 149.453 66.211 149.595 65.8457L149.82 66.6319C149.67 67.0051 149.406 67.3029 149.028 67.5253C148.649 67.7397 148.172 67.8469 147.597 67.8469Z" fill="white"/>
<path d="M139.87 70.1578C139.295 70.1578 138.735 70.0744 138.191 69.9076C137.655 69.7488 137.218 69.5185 136.879 69.2167L137.423 68.3353C137.714 68.5894 138.073 68.7879 138.499 68.9309C138.924 69.0817 139.37 69.1572 139.835 69.1572C140.576 69.1572 141.12 68.9825 141.467 68.6331C141.814 68.2837 141.987 67.7516 141.987 67.0369V65.7028L142.105 64.452L142.046 63.1894V61.4622H143.122V66.9178C143.122 68.0295 142.846 68.8475 142.294 69.3716C141.743 69.8957 140.935 70.1578 139.87 70.1578ZM139.728 67.5134C139.122 67.5134 138.578 67.3863 138.097 67.1322C137.624 66.8701 137.245 66.5088 136.962 66.0482C136.686 65.5876 136.548 65.0556 136.548 64.452C136.548 63.8406 136.686 63.3085 136.962 62.8559C137.245 62.3953 137.624 62.0379 138.097 61.7838C138.578 61.5297 139.122 61.4026 139.728 61.4026C140.265 61.4026 140.753 61.5138 141.195 61.7362C141.636 61.9506 141.987 62.2841 142.247 62.7368C142.515 63.1894 142.649 63.7612 142.649 64.452C142.649 65.135 142.515 65.7028 142.247 66.1554C141.987 66.6081 141.636 66.9495 141.195 67.1798C140.753 67.4022 140.265 67.5134 139.728 67.5134ZM139.859 66.5128C140.276 66.5128 140.647 66.4254 140.97 66.2507C141.293 66.076 141.545 65.8338 141.727 65.5241C141.916 65.2144 142.011 64.857 142.011 64.452C142.011 64.0471 141.916 63.6897 141.727 63.38C141.545 63.0703 141.293 62.8321 140.97 62.6653C140.647 62.4906 140.276 62.4032 139.859 62.4032C139.441 62.4032 139.066 62.4906 138.735 62.6653C138.412 62.8321 138.156 63.0703 137.967 63.38C137.785 63.6897 137.695 64.0471 137.695 64.452C137.695 64.857 137.785 65.2144 137.967 65.5241C138.156 65.8338 138.412 66.076 138.735 66.2507C139.066 66.4254 139.441 66.5128 139.859 66.5128Z" fill="white"/>
<path d="M131.943 67.7754V61.4622H133.031V63.1775L132.924 62.7487C133.098 62.3119 133.39 61.9784 133.799 61.7481C134.209 61.5178 134.714 61.4026 135.313 61.4026V62.5104C135.266 62.5025 135.218 62.4985 135.171 62.4985C135.132 62.4985 135.092 62.4985 135.053 62.4985C134.446 62.4985 133.965 62.6812 133.61 63.0465C133.255 63.4118 133.078 63.9398 133.078 64.6307V67.7754H131.943Z" fill="white"/>
<path d="M126.648 67.8469C126.018 67.8469 125.458 67.7079 124.969 67.43C124.48 67.152 124.094 66.7709 123.81 66.2865C123.527 65.7941 123.385 65.2382 123.385 64.6188C123.385 63.9915 123.527 63.4356 123.81 62.9512C124.094 62.4668 124.48 62.0896 124.969 61.8196C125.458 61.5416 126.018 61.4026 126.648 61.4026C127.271 61.4026 127.827 61.5416 128.315 61.8196C128.812 62.0896 129.198 62.4668 129.474 62.9512C129.758 63.4276 129.9 63.9835 129.9 64.6188C129.9 65.2462 129.758 65.802 129.474 66.2865C129.198 66.7709 128.812 67.152 128.315 67.43C127.827 67.7079 127.271 67.8469 126.648 67.8469ZM126.648 66.8463C127.05 66.8463 127.409 66.755 127.724 66.5723C128.047 66.3897 128.3 66.1316 128.481 65.7981C128.662 65.4566 128.753 65.0635 128.753 64.6188C128.753 64.1662 128.662 63.7771 128.481 63.4515C128.3 63.1179 128.047 62.8598 127.724 62.6772C127.409 62.4946 127.05 62.4032 126.648 62.4032C126.246 62.4032 125.887 62.4946 125.572 62.6772C125.257 62.8598 125.005 63.1179 124.815 63.4515C124.626 63.7771 124.532 64.1662 124.532 64.6188C124.532 65.0635 124.626 65.4566 124.815 65.7981C125.005 66.1316 125.257 66.3897 125.572 66.5723C125.887 66.755 126.246 66.8463 126.648 66.8463Z" fill="white"/>
<path d="M113.51 70.1578C113.21 70.1578 112.919 70.1062 112.635 70.0029C112.351 69.9076 112.107 69.7647 111.902 69.5741L112.386 68.7165C112.544 68.8673 112.717 68.9825 112.907 69.0619C113.096 69.1413 113.297 69.181 113.51 69.181C113.786 69.181 114.014 69.1095 114.196 68.9666C114.377 68.8237 114.546 68.5695 114.704 68.2043L115.094 67.3347L115.212 67.1918L117.672 61.4622H118.783L115.745 68.4068C115.563 68.8515 115.358 69.2009 115.13 69.455C114.909 69.7091 114.665 69.8878 114.397 69.991C114.129 70.1022 113.833 70.1578 113.51 70.1578ZM115 67.9779L112.138 61.4622H113.321L115.756 67.0846L115 67.9779Z" fill="white"/>
<path d="M109.462 67.7754V58.9369H110.597V67.7754H109.462Z" fill="white"/>
<path d="M106.245 67.8469C105.615 67.8469 105.126 67.6762 104.779 67.3347C104.432 66.9932 104.259 66.5049 104.259 65.8696V60.0805H105.394V65.8219C105.394 66.1634 105.477 66.4255 105.642 66.6081C105.816 66.7907 106.06 66.8821 106.375 66.8821C106.73 66.8821 107.026 66.7828 107.262 66.5843L107.617 67.4062C107.443 67.5571 107.235 67.6682 106.99 67.7397C106.754 67.8112 106.505 67.8469 106.245 67.8469ZM103.195 62.4033V61.4622H107.191V62.4033H103.195Z" fill="white"/>
<path d="M98.9182 61.4026C99.4306 61.4026 99.8799 61.5019 100.266 61.7004C100.66 61.899 100.968 62.2007 101.188 62.6057C101.409 63.0107 101.52 63.5229 101.52 64.1423V67.7754H100.384V64.2734C100.384 63.6619 100.235 63.2013 99.9351 62.8916C99.6434 62.5819 99.2296 62.4271 98.6935 62.4271C98.2915 62.4271 97.9407 62.5065 97.6412 62.6653C97.3416 62.8241 97.1091 63.0584 96.9435 63.3681C96.7859 63.6778 96.707 64.0629 96.707 64.5235V67.7754H95.5719V61.4622H96.6597V63.1656L96.4824 62.7129C96.6873 62.3 97.0026 61.9784 97.4283 61.7481C97.854 61.5178 98.3506 61.4026 98.9182 61.4026Z" fill="white"/>
<path d="M90.6492 67.8469C89.9792 67.8469 89.388 67.7079 88.8756 67.43C88.3711 67.152 87.9769 66.7709 87.6932 66.2865C87.4173 65.802 87.2793 65.2462 87.2793 64.6188C87.2793 63.9915 87.4133 63.4356 87.6813 62.9512C87.9572 62.4668 88.3317 62.0896 88.8046 61.8196C89.2855 61.5416 89.8255 61.4026 90.4246 61.4026C91.0316 61.4026 91.5676 61.5376 92.0327 61.8076C92.4978 62.0776 92.8604 62.4588 93.1205 62.9512C93.3885 63.4356 93.5226 64.0034 93.5226 64.6545C93.5226 64.7022 93.5186 64.7578 93.5107 64.8213C93.5107 64.8848 93.5068 64.9444 93.4989 65H88.1661V64.1781H92.9077L92.4465 64.464C92.4544 64.059 92.3717 63.6976 92.1982 63.38C92.0248 63.0623 91.7844 62.8162 91.4769 62.6415C91.1774 62.4588 90.8266 62.3675 90.4246 62.3675C90.0304 62.3675 89.6796 62.4588 89.3722 62.6415C89.0648 62.8162 88.8244 63.0663 88.6509 63.3919C88.4775 63.7096 88.3908 64.0748 88.3908 64.4878V64.6784C88.3908 65.0993 88.4854 65.4765 88.6746 65.81C88.8716 66.1356 89.1436 66.3897 89.4905 66.5723C89.8373 66.755 90.2354 66.8463 90.6847 66.8463C91.0552 66.8463 91.3902 66.7828 91.6898 66.6557C91.9972 66.5287 92.2652 66.3381 92.4938 66.084L93.1205 66.8225C92.8367 67.156 92.482 67.4101 92.0563 67.5848C91.6385 67.7595 91.1695 67.8469 90.6492 67.8469Z" fill="white"/>
<path d="M81.9153 67.8469C81.3083 67.8469 80.7644 67.7119 80.2835 67.4419C79.8105 67.1719 79.4361 66.7947 79.1602 66.3102C78.8843 65.8258 78.7463 65.262 78.7463 64.6188C78.7463 63.9755 78.8843 63.4157 79.1602 62.9392C79.4361 62.4548 79.8105 62.0776 80.2835 61.8076C80.7644 61.5376 81.3083 61.4026 81.9153 61.4026C82.4434 61.4026 82.9203 61.5217 83.346 61.76C83.7717 61.9982 84.1107 62.3556 84.3629 62.832C84.623 63.3085 84.7531 63.9041 84.7531 64.6188C84.7531 65.3335 84.627 65.9291 84.3747 66.4055C84.1304 66.882 83.7953 67.2433 83.3697 67.4895C82.944 67.7277 82.4592 67.8469 81.9153 67.8469ZM82.0099 66.8463C82.404 66.8463 82.7587 66.755 83.0741 66.5723C83.3973 66.3897 83.6495 66.1316 83.8308 65.798C84.02 65.4566 84.1146 65.0635 84.1146 64.6188C84.1146 64.1661 84.02 63.777 83.8308 63.4514C83.6495 63.1179 83.3973 62.8598 83.0741 62.6772C82.7587 62.4945 82.404 62.4032 82.0099 62.4032C81.6078 62.4032 81.2492 62.4945 80.9338 62.6772C80.6185 62.8598 80.3663 63.1179 80.1771 63.4514C79.9879 63.777 79.8933 64.1661 79.8933 64.6188C79.8933 65.0635 79.9879 65.4566 80.1771 65.798C80.3663 66.1316 80.6185 66.3897 80.9338 66.5723C81.2492 66.755 81.6078 66.8463 82.0099 66.8463ZM84.1501 67.7754V66.072L84.221 64.6069L84.1028 63.1417V58.9369H85.2379V67.7754H84.1501Z" fill="white"/>
<path d="M74.1509 61.4026C74.6632 61.4026 75.1126 61.5019 75.4988 61.7004C75.893 61.899 76.2004 62.2007 76.4211 62.6057C76.6419 63.0107 76.7522 63.5229 76.7522 64.1423V67.7754H75.6171V64.2734C75.6171 63.6619 75.4673 63.2013 75.1678 62.8916C74.8761 62.5819 74.4622 62.4271 73.9262 62.4271C73.5242 62.4271 73.1734 62.5065 72.8738 62.6653C72.5743 62.8241 72.3417 63.0584 72.1762 63.3681C72.0185 63.6778 71.9397 64.0629 71.9397 64.5235V67.7754H70.8046V61.4622H71.8924V63.1656L71.715 62.7129C71.92 62.3 72.2353 61.9784 72.661 61.7481C73.0867 61.5178 73.5833 61.4026 74.1509 61.4026Z" fill="white"/>
<path d="M65.8819 67.8469C65.2119 67.8469 64.6206 67.7079 64.1082 67.43C63.6037 67.152 63.2096 66.7709 62.9258 66.2865C62.6499 65.802 62.512 65.2462 62.512 64.6188C62.512 63.9915 62.646 63.4356 62.914 62.9512C63.1899 62.4668 63.5643 62.0896 64.0373 61.8196C64.5182 61.5416 65.0581 61.4026 65.6572 61.4026C66.2642 61.4026 66.8003 61.5376 67.2654 61.8076C67.7304 62.0776 68.0931 62.4588 68.3532 62.9512C68.6212 63.4356 68.7552 64.0034 68.7552 64.6545C68.7552 64.7022 68.7513 64.7578 68.7434 64.8213C68.7434 64.8848 68.7395 64.9444 68.7316 65H63.3988V64.1781H68.1404L67.6792 64.464C67.6871 64.059 67.6043 63.6976 67.4309 63.38C67.2575 63.0623 67.017 62.8162 66.7096 62.6415C66.4101 62.4588 66.0593 62.3675 65.6572 62.3675C65.2631 62.3675 64.9123 62.4588 64.6049 62.6415C64.2974 62.8162 64.057 63.0663 63.8836 63.3919C63.7102 63.7096 63.6235 64.0748 63.6235 64.4878V64.6784C63.6235 65.0993 63.718 65.4765 63.9072 65.81C64.1043 66.1356 64.3763 66.3897 64.7231 66.5723C65.07 66.755 65.468 66.8463 65.9174 66.8463C66.2879 66.8463 66.6229 66.7828 66.9224 66.6557C67.2299 66.5287 67.4979 66.3381 67.7265 66.084L68.3532 66.8225C68.0694 67.156 67.7147 67.4101 67.289 67.5848C66.8712 67.7595 66.4022 67.8469 65.8819 67.8469Z" fill="white"/>
<path d="M57.881 67.8469C57.3607 67.8469 56.8838 67.7278 56.4502 67.4895C56.0246 67.2434 55.6817 66.882 55.4215 66.4056C55.1693 65.9291 55.0431 65.3335 55.0431 64.6188C55.0431 63.9041 55.1653 63.3085 55.4097 62.8321C55.662 62.3556 56.0009 61.9982 56.4266 61.76C56.8602 61.5218 57.345 61.4026 57.881 61.4026C58.4959 61.4026 59.0398 61.5376 59.5128 61.8076C59.9857 62.0776 60.3602 62.4549 60.6361 62.9393C60.912 63.4157 61.0499 63.9756 61.0499 64.6188C61.0499 65.262 60.912 65.8259 60.6361 66.3103C60.3602 66.7947 59.9857 67.1719 59.5128 67.4419C59.0398 67.7119 58.4959 67.8469 57.881 67.8469ZM54.5583 70.0863V61.4622H55.6462V63.1656L55.5752 64.6307L55.6935 66.0959V70.0863H54.5583ZM57.7864 66.8463C58.1884 66.8463 58.5471 66.755 58.8624 66.5723C59.1856 66.3897 59.4379 66.1316 59.6192 65.7981C59.8084 65.4566 59.903 65.0635 59.903 64.6188C59.903 64.1662 59.8084 63.7771 59.6192 63.4515C59.4379 63.1179 59.1856 62.8598 58.8624 62.6772C58.5471 62.4946 58.1884 62.4032 57.7864 62.4032C57.3923 62.4032 57.0336 62.4946 56.7104 62.6772C56.3951 62.8598 56.1428 63.1179 55.9536 63.4515C55.7723 63.7771 55.6817 64.1662 55.6817 64.6188C55.6817 65.0635 55.7723 65.4566 55.9536 65.7981C56.1428 66.1316 56.3951 66.3897 56.7104 66.5723C57.0336 66.755 57.3923 66.8463 57.7864 66.8463Z" fill="white"/>
<path d="M49.6359 67.8469C48.9659 67.8469 48.3747 67.7079 47.8623 67.43C47.3578 67.152 46.9636 66.7709 46.6798 66.2865C46.4039 65.802 46.266 65.2462 46.266 64.6188C46.266 63.9915 46.4 63.4356 46.668 62.9512C46.9439 62.4668 47.3184 62.0896 47.7913 61.8196C48.2722 61.5416 48.8122 61.4026 49.4113 61.4026C50.0182 61.4026 50.5543 61.5376 51.0194 61.8076C51.4845 62.0776 51.8471 62.4588 52.1072 62.9512C52.3752 63.4356 52.5092 64.0034 52.5092 64.6545C52.5092 64.7022 52.5053 64.7578 52.4974 64.8213C52.4974 64.8848 52.4935 64.9444 52.4856 65H47.1528V64.1781H51.8944L51.4332 64.464C51.4411 64.059 51.3583 63.6976 51.1849 63.38C51.0115 63.0623 50.7711 62.8162 50.4636 62.6415C50.1641 62.4588 49.8133 62.3675 49.4113 62.3675C49.0171 62.3675 48.6663 62.4588 48.3589 62.6415C48.0515 62.8162 47.811 63.0663 47.6376 63.3919C47.4642 63.7096 47.3775 64.0748 47.3775 64.4878V64.6784C47.3775 65.0993 47.4721 65.4765 47.6613 65.81C47.8583 66.1356 48.1303 66.3897 48.4771 66.5723C48.824 66.755 49.2221 66.8463 49.6714 66.8463C50.0419 66.8463 50.3769 66.7828 50.6765 66.6557C50.9839 66.5287 51.2519 66.3381 51.4805 66.084L52.1072 66.8225C51.8234 67.156 51.4687 67.4101 51.043 67.5848C50.6252 67.7595 50.1562 67.8469 49.6359 67.8469Z" fill="white"/>
<path d="M40.902 67.8469C40.295 67.8469 39.7511 67.7119 39.2702 67.4419C38.7972 67.1719 38.4228 66.7947 38.1469 66.3102C37.871 65.8258 37.733 65.262 37.733 64.6188C37.733 63.9755 37.871 63.4157 38.1469 62.9392C38.4228 62.4548 38.7972 62.0776 39.2702 61.8076C39.7511 61.5376 40.295 61.4026 40.902 61.4026C41.4301 61.4026 41.907 61.5217 42.3327 61.76C42.7584 61.9982 43.0973 62.3556 43.3496 62.832C43.6097 63.3085 43.7398 63.9041 43.7398 64.6188C43.7398 65.3335 43.6137 65.9291 43.3614 66.4055C43.1171 66.882 42.782 67.2433 42.3564 67.4895C41.9307 67.7277 41.4459 67.8469 40.902 67.8469ZM40.9966 66.8463C41.3907 66.8463 41.7454 66.755 42.0607 66.5723C42.3839 66.3897 42.6362 66.1316 42.8175 65.798C43.0067 65.4566 43.1013 65.0635 43.1013 64.6188C43.1013 64.1661 43.0067 63.777 42.8175 63.4514C42.6362 63.1179 42.3839 62.8598 42.0607 62.6772C41.7454 62.4945 41.3907 62.4032 40.9966 62.4032C40.5945 62.4032 40.2359 62.4945 39.9205 62.6772C39.6052 62.8598 39.353 63.1179 39.1638 63.4514C38.9746 63.777 38.88 64.1661 38.88 64.6188C38.88 65.0635 38.9746 65.4566 39.1638 65.798C39.353 66.1316 39.6052 66.3897 39.9205 66.5723C40.2359 66.755 40.5945 66.8463 40.9966 66.8463ZM43.1368 67.7754V66.072L43.2077 64.6069L43.0895 63.1417V58.9369H44.2246V67.7754H43.1368Z" fill="white"/>
<path d="M33.1373 61.4026C33.6497 61.4026 34.099 61.5019 34.4853 61.7004C34.8794 61.899 35.1869 62.2007 35.4076 62.6057C35.6283 63.0107 35.7387 63.5229 35.7387 64.1423V67.7754H34.6035V64.2734C34.6035 63.6619 34.4538 63.2013 34.1542 62.8916C33.8625 62.5819 33.4487 62.4271 32.9126 62.4271C32.5106 62.4271 32.1598 62.5065 31.8603 62.6653C31.5607 62.8241 31.3282 63.0584 31.1626 63.3681C31.005 63.6778 30.9262 64.0629 30.9262 64.5235V67.7754H29.791V61.4622H30.8789V63.1656L30.7015 62.7129C30.9064 62.3 31.2218 61.9784 31.6474 61.7481C32.0731 61.5178 32.5697 61.4026 33.1373 61.4026Z" fill="white"/>
<path d="M26.0155 67.7754V61.4622H27.1507V67.7754H26.0155ZM26.5831 60.2472C26.3624 60.2472 26.1771 60.1757 26.0274 60.0328C25.8855 59.8899 25.8145 59.7151 25.8145 59.5087C25.8145 59.2943 25.8855 59.1156 26.0274 58.9727C26.1771 58.8297 26.3624 58.7582 26.5831 58.7582C26.8038 58.7582 26.9851 58.8297 27.127 58.9727C27.2768 59.1077 27.3517 59.2784 27.3517 59.4849C27.3517 59.6993 27.2807 59.8819 27.1388 60.0328C26.997 60.1757 26.8117 60.2472 26.5831 60.2472Z" fill="white"/>
<path d="M14.7282 62.6653V61.7243H20.0255V62.6653H14.7282ZM14.7282 65.4884V64.5474H20.0255V65.4884H14.7282Z" fill="white"/>
</svg>
