<svg width="2190" height="295" viewBox="0 0 2190 295" fill="none" xmlns="http://www.w3.org/2000/svg">
<path d="M1247.71 294.139L1262.38 268.068H1392.73L1378.07 294.139H1247.71Z" fill="#EB0028"/>
<path d="M486.495 235.893C469.184 235.893 453.228 233.182 438.628 227.759C424.237 222.128 411.619 214.202 400.773 203.982C390.136 193.762 381.793 181.769 375.744 168.004C369.904 154.238 366.984 139.117 366.984 122.64C366.984 106.163 369.904 91.0411 375.744 77.2755C381.793 63.5098 390.24 51.517 401.086 41.297C411.931 31.077 424.654 23.2556 439.254 17.8328C453.854 12.2014 469.914 9.38569 487.434 9.38569C506.831 9.38569 524.247 12.6185 539.681 19.0842C555.324 25.5499 568.464 34.9356 579.101 47.2413L546.564 77.2755C538.638 68.9326 529.982 62.7798 520.597 58.817C511.211 54.6455 500.991 52.5598 489.937 52.5598C479.3 52.5598 469.601 54.2284 460.841 57.5655C452.081 60.9027 444.468 65.6998 438.003 71.9569C431.746 78.214 426.844 85.6183 423.298 94.1697C419.961 102.721 418.293 112.211 418.293 122.64C418.293 132.86 419.961 142.245 423.298 150.797C426.844 159.348 431.746 166.857 438.003 173.322C444.468 179.579 451.977 184.377 460.528 187.714C469.288 191.051 478.883 192.719 489.311 192.719C499.323 192.719 509.021 191.155 518.407 188.027C528.001 184.689 537.282 179.162 546.251 171.445L575.034 208.049C563.145 217.018 549.275 223.901 533.424 228.698C517.781 233.495 502.138 235.893 486.495 235.893ZM528.731 201.479V119.198H575.034V208.049L528.731 201.479Z" fill="#EB0028"/>
<path d="M615.544 232.139V63.8226H662.159V111.377L655.589 97.6111C660.595 85.7226 668.625 76.754 679.679 70.7055C690.733 64.4484 704.186 61.3198 720.038 61.3198V106.371C717.952 106.163 716.075 106.058 714.406 106.058C712.738 105.85 710.965 105.745 709.088 105.745C695.739 105.745 684.893 109.604 676.551 117.321C668.416 124.83 664.349 136.614 664.349 152.674V232.139H615.544Z" fill="#EB0028"/>
<path d="M838.173 232.139V199.289L835.044 192.094V133.277C835.044 122.848 831.811 114.714 825.345 108.874C819.088 103.034 809.39 100.114 796.25 100.114C787.281 100.114 778.417 101.574 769.657 104.494C761.106 107.205 753.806 110.96 747.757 115.757L730.237 81.6554C739.414 75.1898 750.469 70.1841 763.4 66.6383C776.331 63.0926 789.471 61.3198 802.82 61.3198C828.474 61.3198 848.392 67.3684 862.575 79.4654C876.758 91.5626 883.849 110.438 883.849 136.092V232.139H838.173ZM786.864 234.642C773.724 234.642 762.461 232.452 753.076 228.072C743.69 223.484 736.494 217.331 731.489 209.614C726.483 201.896 723.98 193.241 723.98 183.647C723.98 173.635 726.379 164.875 731.176 157.367C736.181 149.858 744.003 144.018 754.64 139.847C765.277 135.467 779.147 133.277 796.25 133.277H840.988V161.747H801.568C790.097 161.747 782.171 163.624 777.791 167.378C773.62 171.132 771.534 175.825 771.534 181.457C771.534 187.714 773.933 192.719 778.73 196.474C783.736 200.019 790.514 201.792 799.065 201.792C807.2 201.792 814.5 199.915 820.965 196.161C827.431 192.198 832.124 186.462 835.044 178.954L842.552 201.479C839.007 212.325 832.541 220.564 823.155 226.195C813.77 231.826 801.673 234.642 786.864 234.642Z" fill="#EB0028"/>
<path d="M1024.38 234.642C1009.57 234.642 996.849 231.514 986.212 225.256C975.575 218.999 967.441 209.509 961.809 196.786C956.178 183.855 953.362 167.587 953.362 147.981C953.362 128.167 956.282 111.898 962.122 99.1754C968.171 86.4526 976.514 76.9626 987.151 70.7055C997.788 64.4484 1010.2 61.3198 1024.38 61.3198C1040.23 61.3198 1054.41 64.8655 1066.93 71.9569C1079.65 79.0483 1089.66 89.0597 1096.96 101.991C1104.47 114.922 1108.23 130.252 1108.23 147.981C1108.23 165.501 1104.47 180.727 1096.96 193.658C1089.66 206.589 1079.65 216.705 1066.93 224.005C1054.41 231.096 1040.23 234.642 1024.38 234.642ZM924.892 232.139V0H973.698V97.924L970.569 147.668L971.508 197.725V232.139H924.892ZM1015.93 194.596C1024.07 194.596 1031.26 192.719 1037.52 188.965C1043.99 185.211 1049.1 179.892 1052.85 173.009C1056.81 165.918 1058.79 157.575 1058.79 147.981C1058.79 138.178 1056.81 129.835 1052.85 122.952C1049.1 116.07 1043.99 110.751 1037.52 106.997C1031.26 103.243 1024.07 101.365 1015.93 101.365C1007.8 101.365 1000.5 103.243 994.034 106.997C987.568 110.751 982.458 116.07 978.704 122.952C974.949 129.835 973.072 138.178 973.072 147.981C973.072 157.575 974.949 165.918 978.704 173.009C982.458 179.892 987.568 185.211 994.034 188.965C1000.5 192.719 1007.8 194.596 1015.93 194.596Z" fill="#EB0028"/>
<path d="M1208.79 234.642C1194.81 234.642 1182.3 231.931 1171.24 226.508C1160.4 221.085 1151.95 212.846 1145.9 201.792C1139.85 190.529 1136.83 176.242 1136.83 158.931V63.8226H1185.64V151.735C1185.64 165.709 1188.56 176.034 1194.4 182.708C1200.44 189.174 1208.89 192.406 1219.74 192.406C1227.25 192.406 1233.92 190.842 1239.76 187.714C1245.6 184.377 1250.19 179.371 1253.53 172.697C1256.86 165.814 1258.53 157.262 1258.53 147.042V63.8226H1307.34V232.139H1261.03V185.837L1269.48 199.289C1263.85 210.969 1255.51 219.834 1244.45 225.882C1233.61 231.722 1221.72 234.642 1208.79 234.642Z" fill="#EB0028"/>
<path d="M1349.42 232.139V63.8226H1396.04V111.377L1389.47 97.6111C1394.47 85.7226 1402.5 76.754 1413.56 70.7055C1424.61 64.4484 1438.07 61.3198 1453.92 61.3198V106.371C1451.83 106.163 1449.95 106.058 1448.29 106.058C1446.62 105.85 1444.84 105.745 1442.97 105.745C1429.62 105.745 1418.77 109.604 1410.43 117.321C1402.3 124.83 1398.23 136.614 1398.23 152.674V232.139H1349.42Z" fill="#EB0028"/>
<path d="M1482.64 232.139V13.14H1577.43C1597.04 13.14 1613.93 16.3728 1628.12 22.8385C1642.3 29.0956 1653.25 38.1684 1660.97 50.057C1668.68 61.9455 1672.54 76.1283 1672.54 92.6054C1672.54 108.874 1668.68 122.952 1660.97 134.841C1653.25 146.73 1642.3 155.907 1628.12 162.372C1613.93 168.629 1597.04 171.758 1577.43 171.758H1510.8L1533.32 148.92V232.139H1482.64ZM1533.32 154.551L1510.8 130.461H1574.62C1590.26 130.461 1601.94 127.124 1609.66 120.45C1617.38 113.775 1621.23 104.494 1621.23 92.6054C1621.23 80.5083 1617.38 71.1226 1609.66 64.4484C1601.94 57.7741 1590.26 54.437 1574.62 54.437H1510.8L1533.32 30.347V154.551Z" fill="#EB0028"/>
<path d="M1803.87 232.139V199.289L1800.74 192.094V133.277C1800.74 122.848 1797.51 114.714 1791.04 108.874C1784.79 103.034 1775.09 100.114 1761.95 100.114C1752.98 100.114 1744.12 101.574 1735.36 104.494C1726.8 107.205 1719.5 110.96 1713.46 115.757L1695.94 81.6554C1705.11 75.1898 1716.17 70.1841 1729.1 66.6383C1742.03 63.0926 1755.17 61.3198 1768.52 61.3198C1794.17 61.3198 1814.09 67.3684 1828.27 79.4654C1842.46 91.5626 1849.55 110.438 1849.55 136.092V232.139H1803.87ZM1752.56 234.642C1739.42 234.642 1728.16 232.452 1718.77 228.072C1709.39 223.484 1702.19 217.331 1697.19 209.614C1692.18 201.896 1689.68 193.241 1689.68 183.647C1689.68 173.635 1692.08 164.875 1696.87 157.367C1701.88 149.858 1709.7 144.018 1720.34 139.847C1730.98 135.467 1744.85 133.277 1761.95 133.277H1806.69V161.747H1767.27C1755.8 161.747 1747.87 163.624 1743.49 167.378C1739.32 171.132 1737.23 175.825 1737.23 181.457C1737.23 187.714 1739.63 192.719 1744.43 196.474C1749.43 200.019 1756.21 201.792 1764.76 201.792C1772.9 201.792 1780.2 199.915 1786.66 196.161C1793.13 192.198 1797.82 186.462 1800.74 178.954L1808.25 201.479C1804.71 212.325 1798.24 220.564 1788.85 226.195C1779.47 231.826 1767.37 234.642 1752.56 234.642Z" fill="#EB0028"/>
<path d="M1947.22 234.642C1932.83 234.642 1918.96 232.974 1905.61 229.636C1892.47 226.091 1882.04 221.711 1874.32 216.496L1890.59 181.457C1898.31 186.254 1907.38 190.216 1917.81 193.345C1928.45 196.265 1938.88 197.725 1949.1 197.725C1960.36 197.725 1968.28 196.369 1972.87 193.658C1977.67 190.947 1980.07 187.192 1980.07 182.395C1980.07 178.432 1978.19 175.512 1974.44 173.635C1970.89 171.549 1966.09 169.985 1960.05 168.942C1954 167.899 1947.32 166.857 1940.02 165.814C1932.93 164.771 1925.74 163.415 1918.44 161.747C1911.14 159.869 1904.46 157.158 1898.41 153.612C1892.36 150.067 1887.46 145.27 1883.71 139.221C1880.16 133.172 1878.39 125.351 1878.39 115.757C1878.39 105.12 1881.41 95.734 1887.46 87.5997C1893.72 79.4654 1902.69 73.104 1914.37 68.5155C1926.05 63.7184 1940.02 61.3198 1956.29 61.3198C1967.76 61.3198 1979.44 62.5712 1991.33 65.0741C2003.22 67.5769 2013.13 71.2269 2021.05 76.024L2004.78 110.751C1996.65 105.954 1988.41 102.721 1980.07 101.053C1971.93 99.1754 1964.01 98.2368 1956.29 98.2368C1945.45 98.2368 1937.52 99.6968 1932.51 102.617C1927.51 105.537 1925.01 109.291 1925.01 113.88C1925.01 118.051 1926.78 121.18 1930.32 123.265C1934.08 125.351 1938.98 127.02 1945.03 128.271C1951.08 129.522 1957.65 130.67 1964.74 131.712C1972.04 132.547 1979.34 133.902 1986.64 135.78C1993.94 137.657 2000.51 140.368 2006.35 143.914C2012.4 147.251 2017.3 151.944 2021.05 157.992C2024.81 163.832 2026.68 171.549 2026.68 181.144C2026.68 191.572 2023.55 200.854 2017.3 208.988C2011.04 216.914 2001.97 223.171 1990.08 227.759C1978.4 232.348 1964.11 234.642 1947.22 234.642Z" fill="#EB0028"/>
<path d="M2110.29 234.642C2095.9 234.642 2082.03 232.974 2068.68 229.636C2055.54 226.091 2045.12 221.711 2037.4 216.496L2053.67 181.457C2061.38 186.254 2070.46 190.216 2080.89 193.345C2091.52 196.265 2101.95 197.725 2112.17 197.725C2123.43 197.725 2131.36 196.369 2135.95 193.658C2140.75 190.947 2143.14 187.192 2143.14 182.395C2143.14 178.432 2141.27 175.512 2137.51 173.635C2133.97 171.549 2129.17 169.985 2123.12 168.942C2117.07 167.899 2110.4 166.857 2103.1 165.814C2096.01 164.771 2088.81 163.415 2081.51 161.747C2074.21 159.869 2067.54 157.158 2061.49 153.612C2055.44 150.067 2050.54 145.27 2046.78 139.221C2043.24 133.172 2041.47 125.351 2041.47 115.757C2041.47 105.12 2044.49 95.734 2050.54 87.5997C2056.8 79.4654 2065.76 73.104 2077.44 68.5155C2089.12 63.7184 2103.1 61.3198 2119.37 61.3198C2130.84 61.3198 2142.52 62.5712 2154.41 65.0741C2166.3 67.5769 2176.2 71.2269 2184.13 76.024L2167.86 110.751C2159.73 105.954 2151.49 102.721 2143.14 101.053C2135.01 99.1754 2127.08 98.2368 2119.37 98.2368C2108.52 98.2368 2100.6 99.6968 2095.59 102.617C2090.58 105.537 2088.08 109.291 2088.08 113.88C2088.08 118.051 2089.85 121.18 2093.4 123.265C2097.15 125.351 2102.06 127.02 2108.1 128.271C2114.15 129.522 2120.72 130.67 2127.81 131.712C2135.11 132.547 2142.41 133.902 2149.71 135.78C2157.01 137.657 2163.58 140.368 2169.42 143.914C2175.47 147.251 2180.37 151.944 2184.13 157.992C2187.88 163.832 2189.76 171.549 2189.76 181.144C2189.76 191.572 2186.63 200.854 2180.37 208.988C2174.12 216.914 2165.04 223.171 2153.16 227.759C2141.48 232.348 2127.19 234.642 2110.29 234.642Z" fill="#EB0028"/>
<path d="M78.6842 201.079L119.189 177.546C119.189 175.011 117.38 174.83 116.476 175.057L33.4291 218.277C24.7398 220.811 26.4898 215.712 28.4509 212.846L79.5912 187.729C79.5912 180.714 75.2918 175.509 71.445 176.641L51.9845 185.918C41.8469 188.996 43.3857 183.127 45.4222 179.809L63.0724 170.984C68.7295 168.494 67.8998 166.458 67.3718 165.326L67.8244 159.896L65.5616 156.275C63.0272 153.922 60.432 155.294 59.4512 156.275L20.304 177.546C11.9767 178.994 14.5714 173.774 16.9097 170.984L67.1449 144.961C71.1275 143.332 71.218 140.812 70.7654 139.756L67.1449 133.42C65.5156 129.257 61.3369 130.328 59.4512 131.384L25.7344 146.997C14.8728 148.084 20.0777 142.17 22.5668 139.756L37.9529 131.384C39.5369 130.705 41.5735 130.252 41.5735 123.916C53.8834 116.494 52.9632 101.665 51.0775 93.8205L234.821 0.138672C244.777 16.2501 259.787 12.886 266.047 9.19005L275.099 27.0665C265.323 38.2903 275.702 40.0402 282.114 39.5122L288.223 51.5053C277.543 63.2721 288.6 65.1578 295.464 64.6298L300.216 75.0389C290.622 87.8918 301.197 89.1439 307.684 88.1634L316.735 102.872C299.719 111.018 302.404 126.179 305.873 132.741L119.189 229.139C109.595 212.122 93.9207 214.807 87.283 218.277L78.6842 201.079Z" fill="#EB0028"/>
<path d="M123.263 209.452C116.022 200.039 104.557 199.495 99.7295 200.401C94.4793 198.59 97.5419 196.177 99.7295 195.196C110.818 193.838 119.417 197.233 123.263 204.021L281.436 123.917C277.635 115.589 283.02 105.814 286.188 101.967L251.341 33.4027C237.764 34.3078 231.05 27.8964 229.391 24.5776L72.5758 104.909C75.2912 111.245 73.4052 117.656 72.1228 120.07C68.3212 126.225 65.7873 123.238 67.5971 121.427C72.1228 113.96 69.1056 107.247 67.5971 103.325L231.201 19.373C237.718 27.8813 249.605 28.349 254.734 27.5193L293.882 103.325C286.278 108.212 286.339 121.654 287.319 127.763L123.263 209.452Z" fill="white"/>
<path d="M10.1243 146.543C6.32862 146.363 2.75571 148.594 0.941144 152.205C0.0313574 153.979 -1.21963 160.272 2.6584 158.763C6.26821 157.359 13.7449 152.879 14.1974 151.974C14.65 151.069 14.8763 146.77 10.1243 146.543Z" fill="#EB0028"/>
<path d="M108.507 159.614C106.925 160.369 105.348 160.817 103.777 160.959C102.216 161.072 100.716 160.898 99.2789 160.437C97.8606 159.967 96.5747 159.235 95.4211 158.241C94.2865 157.237 93.3598 155.982 92.6407 154.476C91.9217 152.97 91.5288 151.46 91.4619 149.947C91.4141 148.425 91.6629 146.96 92.2084 145.553C92.7538 144.145 93.5755 142.875 94.6734 141.742C95.7623 140.59 97.1075 139.632 98.709 138.867C100.482 138.021 102.215 137.557 103.908 137.474C105.62 137.383 107.231 137.667 108.74 138.328L107.077 142.493C105.988 142.076 104.928 141.892 103.897 141.939C102.857 141.967 101.832 142.222 100.822 142.705C99.8494 143.169 99.0357 143.745 98.3806 144.432C97.7254 145.119 97.2389 145.89 96.9209 146.744C96.622 147.589 96.497 148.48 96.5461 149.416C96.6142 150.344 96.8758 151.284 97.3309 152.237C97.7768 153.171 98.3389 153.957 99.0171 154.593C99.7144 155.22 100.49 155.692 101.344 156.01C102.208 156.3 103.104 156.411 104.031 156.343C104.978 156.265 105.927 155.999 106.881 155.544C107.796 155.107 108.614 154.541 109.336 153.846C110.067 153.122 110.674 152.212 111.157 151.115L115.386 153.205C114.69 154.543 113.723 155.778 112.483 156.908C111.263 158.029 109.937 158.931 108.507 159.614ZM110.866 154.625L107.276 147.103L111.508 145.083L115.386 153.205L110.866 154.625Z" fill="white"/>
<path d="M120.14 153.639L112.795 138.253L117.056 136.219L119.131 140.566L117.93 139.594C117.869 138.289 118.211 137.119 118.958 136.084C119.695 135.029 120.789 134.156 122.238 133.465L124.204 137.583C124.004 137.655 123.828 137.727 123.675 137.8C123.513 137.854 123.347 137.921 123.175 138.003C121.955 138.586 121.132 139.412 120.706 140.481C120.29 141.523 120.433 142.777 121.134 144.245L124.601 151.509L120.14 153.639Z" fill="white"/>
<path d="M140.491 143.924L139.057 140.921L138.457 140.4L135.89 135.024C135.435 134.07 134.785 133.468 133.939 133.216C133.112 132.955 132.098 133.112 130.897 133.685C130.077 134.076 129.331 134.597 128.657 135.246C127.994 135.867 127.491 136.529 127.147 137.231L124.057 134.878C124.614 133.887 125.406 132.947 126.433 132.059C127.461 131.17 128.585 130.435 129.805 129.852C132.15 128.733 134.235 128.416 136.059 128.903C137.883 129.39 139.355 130.806 140.475 133.151L144.666 141.931L140.491 143.924ZM135.91 146.392C134.708 146.965 133.583 147.257 132.534 147.266C131.476 147.256 130.55 147.007 129.756 146.52C128.961 146.033 128.355 145.351 127.936 144.474C127.499 143.559 127.336 142.654 127.447 141.758C127.577 140.853 128.037 139.978 128.827 139.133C129.609 138.268 130.781 137.463 132.344 136.716L136.434 134.764L137.676 137.367L134.073 139.087C133.024 139.587 132.382 140.105 132.145 140.639C131.928 141.164 131.942 141.684 132.187 142.199C132.46 142.771 132.898 143.124 133.5 143.258C134.113 143.364 134.81 143.23 135.591 142.857C136.335 142.502 136.92 142.012 137.348 141.386C137.766 140.742 137.944 140.013 137.884 139.199L139.553 140.93C139.702 142.076 139.471 143.112 138.858 144.036C138.246 144.96 137.263 145.746 135.91 146.392Z" fill="white"/>
<path d="M157.621 136.027C156.267 136.673 154.968 136.943 153.723 136.835C152.477 136.727 151.319 136.215 150.249 135.297C149.17 134.361 148.203 132.997 147.348 131.205C146.483 129.393 146.04 127.779 146.019 126.361C146.016 124.934 146.365 123.703 147.064 122.666C147.763 121.63 148.761 120.803 150.058 120.184C151.507 119.492 152.958 119.197 154.411 119.299C155.884 119.392 157.236 119.871 158.467 120.734C159.718 121.589 160.73 122.826 161.504 124.447C162.268 126.048 162.589 127.604 162.467 129.114C162.364 130.614 161.891 131.976 161.046 133.198C160.212 134.393 159.07 135.336 157.621 136.027ZM148.418 140.14L138.288 118.92L142.749 116.79L147.022 125.741L148.907 130.425L151.177 134.96L152.679 138.106L148.418 140.14ZM155.101 132.735C155.845 132.38 156.421 131.895 156.829 131.279C157.256 130.653 157.491 129.944 157.534 129.151C157.587 128.33 157.404 127.481 156.985 126.604C156.557 125.708 156.012 125.032 155.35 124.575C154.706 124.11 154.007 123.847 153.252 123.786C152.516 123.716 151.777 123.858 151.033 124.213C150.289 124.568 149.704 125.058 149.277 125.683C148.85 126.309 148.615 127.018 148.572 127.811C148.529 128.604 148.721 129.448 149.149 130.345C149.568 131.222 150.104 131.902 150.756 132.387C151.4 132.852 152.099 133.115 152.854 133.176C153.609 133.237 154.358 133.09 155.101 132.735Z" fill="white"/>
<path d="M174.478 127.98C173.2 128.59 171.938 128.888 170.691 128.875C169.463 128.853 168.331 128.468 167.296 127.722C166.252 126.956 165.352 125.782 164.596 124.199L160.446 115.506L164.907 113.376L168.744 121.412C169.353 122.689 170.071 123.506 170.896 123.861C171.731 124.188 172.644 124.115 173.636 123.642C174.322 123.314 174.864 122.88 175.261 122.339C175.649 121.779 175.85 121.121 175.864 120.365C175.869 119.591 175.648 118.736 175.202 117.802L171.571 110.195L176.032 108.065L183.377 123.451L179.144 125.472L177.124 121.239L178.483 122.1C178.478 123.413 178.102 124.588 177.356 125.623C176.619 126.63 175.66 127.416 174.478 127.98Z" fill="white"/>
<path d="M187.224 121.614L179.879 106.229L184.14 104.194L186.216 108.541L185.014 107.57C184.953 106.265 185.296 105.094 186.042 104.059C186.78 103.005 187.873 102.132 189.322 101.44L191.288 105.558C191.088 105.63 190.912 105.702 190.759 105.775C190.598 105.829 190.431 105.897 190.26 105.979C189.039 106.561 188.216 107.387 187.79 108.457C187.375 109.498 187.517 110.753 188.218 112.221L191.685 119.485L187.224 121.614Z" fill="white"/>
<path d="M199.401 115.801L189.845 95.7824L198.51 91.6458C200.302 90.7903 201.988 90.3486 203.566 90.3207C205.136 90.2738 206.533 90.6253 207.757 91.3753C208.981 92.1253 209.953 93.2533 210.672 94.7595C211.382 96.2466 211.643 97.7019 211.457 99.1254C211.27 100.549 210.669 101.866 209.655 103.076C208.632 104.266 207.224 105.29 205.432 106.145L199.34 109.053L200.403 105.982L204.034 113.59L199.401 115.801ZM200.649 106.497L197.538 105.278L203.372 102.493C204.802 101.81 205.724 100.996 206.138 100.049C206.553 99.102 206.5 98.0852 205.982 96.9985C205.454 95.8927 204.691 95.2031 203.695 94.9298C202.698 94.6564 201.485 94.8611 200.055 95.5437L194.221 98.3287L195.229 95.1437L200.649 106.497Z" fill="white"/>
<path d="M228.765 101.783L227.332 98.7807L226.732 98.2594L224.165 92.883C223.71 91.9297 223.06 91.3272 222.214 91.0755C221.387 90.8147 220.373 90.971 219.172 91.5444C218.352 91.9358 217.606 92.4561 216.932 93.1052C216.269 93.7262 215.765 94.388 215.422 95.0904L212.332 92.7377C212.889 91.7462 213.681 90.8063 214.708 89.9179C215.736 89.0295 216.859 88.294 218.08 87.7115C220.425 86.5921 222.509 86.2758 224.334 86.7627C226.158 87.2496 227.63 88.6655 228.749 91.0106L232.941 99.7903L228.765 101.783ZM224.184 104.251C222.983 104.825 221.858 105.116 220.809 105.125C219.751 105.115 218.825 104.867 218.03 104.38C217.236 103.893 216.63 103.211 216.211 102.334C215.774 101.419 215.611 100.513 215.722 99.6176C215.852 98.7128 216.312 97.8376 217.102 96.9921C217.883 96.1276 219.056 95.3222 220.619 94.5758L224.709 92.6236L225.951 95.226L222.348 96.9462C221.299 97.4468 220.656 97.9642 220.42 98.4985C220.202 99.0237 220.217 99.5437 220.462 100.059C220.735 100.63 221.173 100.983 221.775 101.117C222.388 101.223 223.085 101.089 223.866 100.716C224.61 100.361 225.195 99.8709 225.622 99.2456C226.041 98.6012 226.219 97.8721 226.159 97.0583L227.828 98.7897C227.977 99.9359 227.745 100.971 227.133 101.895C226.521 102.82 225.538 103.605 224.184 104.251Z" fill="white"/>
<path d="M241.978 95.757C240.662 96.385 239.322 96.8377 237.956 97.1152C236.6 97.3645 235.456 97.4192 234.523 97.2793L234.481 93.3663C235.396 93.4681 236.398 93.4344 237.488 93.2653C238.587 93.0681 239.604 92.7465 240.539 92.3005C241.568 91.809 242.233 91.3392 242.535 90.8911C242.855 90.434 242.91 89.9861 242.701 89.5476C242.528 89.1854 242.229 89.0004 241.804 88.9926C241.389 88.9567 240.882 89.023 240.284 89.1916C239.685 89.3602 239.03 89.5562 238.317 89.7794C237.623 89.9935 236.906 90.1836 236.166 90.3496C235.417 90.4966 234.688 90.54 233.981 90.4798C233.273 90.4196 232.616 90.195 232.009 89.8059C231.421 89.4077 230.917 88.7702 230.498 87.8931C230.034 86.9208 229.901 85.9309 230.099 84.9234C230.316 83.9068 230.858 82.9339 231.726 82.0048C232.584 81.0566 233.757 80.2275 235.244 79.5176C236.293 79.017 237.415 78.6218 238.611 78.3318C239.807 78.0418 240.872 77.9431 241.805 78.0357L241.834 81.9201C240.881 81.8365 239.987 81.9005 239.151 82.112C238.326 82.2954 237.56 82.5555 236.855 82.8922C235.864 83.3655 235.203 83.8448 234.873 84.3302C234.542 84.8155 234.477 85.2679 234.678 85.6874C234.86 86.0687 235.158 86.2773 235.573 86.3132C236.008 86.3401 236.529 86.2787 237.136 86.1291C237.744 85.9796 238.394 85.7978 239.088 85.5836C239.792 85.3413 240.518 85.1467 241.267 84.9998C242.016 84.8528 242.735 84.814 243.424 84.8832C244.122 84.9243 244.775 85.1394 245.382 85.5285C245.98 85.8985 246.489 86.522 246.907 87.399C247.362 88.3523 247.482 89.3372 247.264 90.3538C247.038 91.3514 246.482 92.3193 245.596 93.2575C244.728 94.1866 243.522 95.0198 241.978 95.757Z" fill="white"/>
<path d="M256.885 88.6408C255.569 89.2688 254.229 89.7215 252.863 89.9989C251.507 90.2482 250.363 90.3029 249.43 90.163L249.388 86.2501C250.302 86.3519 251.305 86.3182 252.394 86.1491C253.494 85.9518 254.511 85.6302 255.445 85.1843C256.475 84.6928 257.14 84.223 257.441 83.7749C257.762 83.3177 257.817 82.8699 257.608 82.4314C257.435 82.0691 257.136 81.8841 256.711 81.8764C256.296 81.8404 255.789 81.9068 255.19 82.0754C254.592 82.244 253.936 82.4399 253.224 82.6632C252.53 82.8773 251.813 83.0674 251.073 83.2334C250.324 83.3803 249.595 83.4237 248.888 83.3636C248.18 83.3034 247.523 83.0788 246.915 82.6897C246.327 82.2915 245.824 81.6539 245.405 80.7769C244.941 79.8046 244.808 78.8147 245.006 77.8072C245.223 76.7906 245.765 75.8177 246.633 74.8886C247.491 73.9404 248.664 73.1113 250.151 72.4014C251.199 71.9008 252.322 71.5055 253.518 71.2155C254.714 70.9255 255.779 70.8269 256.712 70.9195L256.741 74.8038C255.788 74.7203 254.894 74.7843 254.058 74.9958C253.233 75.1792 252.467 75.4392 251.762 75.776C250.77 76.2493 250.11 76.7286 249.779 77.214C249.449 77.6993 249.384 78.1517 249.585 78.5711C249.767 78.9524 250.065 79.1611 250.48 79.197C250.914 79.2238 251.435 79.1625 252.043 79.0129C252.65 78.8634 253.301 78.6815 253.995 78.4674C254.698 78.2251 255.425 78.0305 256.174 77.8835C256.923 77.7366 257.642 77.6977 258.331 77.767C259.029 77.8081 259.682 78.0232 260.289 78.4123C260.887 78.7823 261.396 79.4058 261.814 80.2828C262.269 81.2361 262.388 82.221 262.171 83.2376C261.945 84.2352 261.389 85.203 260.502 86.1413C259.635 87.0704 258.429 87.9036 256.885 88.6408Z" fill="white"/>
</svg>
