<svg width="266" height="70" viewBox="0 0 266 70" fill="none" xmlns="http://www.w3.org/2000/svg">
<path d="M11.8 48V18.5H0.2V13H29.9V18.5H18.3V48H11.8ZM40.7781 27.55H58.1781V32.9H40.7781V27.55ZM41.2781 42.55H61.0281V48H34.7781V13H60.3281V18.45H41.2781V42.55ZM68.2742 48V13H83.5742C87.3742 13 90.7076 13.7333 93.5742 15.2C96.4409 16.6667 98.6742 18.7 100.274 21.3C101.874 23.9 102.674 26.9667 102.674 30.5C102.674 34 101.874 37.0667 100.274 39.7C98.6742 42.3 96.4409 44.3333 93.5742 45.8C90.7076 47.2667 87.3742 48 83.5742 48H68.2742ZM74.7742 42.5H83.2742C85.9076 42.5 88.1742 42 90.0742 41C92.0076 40 93.4909 38.6 94.5242 36.8C95.5909 35 96.1242 32.9 96.1242 30.5C96.1242 28.0667 95.5909 25.9667 94.5242 24.2C93.4909 22.4 92.0076 21 90.0742 20C88.1742 19 85.9076 18.5 83.2742 18.5H74.7742V42.5Z" fill="#EB0028"/>
<path d="M150.9 48.9C148.233 48.9 145.767 48.4667 143.5 47.6C141.267 46.7 139.317 45.45 137.65 43.85C136.017 42.2167 134.733 40.3167 133.8 38.15C132.867 35.9833 132.4 33.6 132.4 31C132.4 28.4 132.867 26.0167 133.8 23.85C134.733 21.6833 136.033 19.8 137.7 18.2C139.367 16.5667 141.317 15.3167 143.55 14.45C145.817 13.55 148.283 13.1 150.95 13.1C153.65 13.1 156.133 13.5667 158.4 14.5C160.7 15.4 162.65 16.75 164.25 18.55L161 21.7C159.667 20.3 158.167 19.2667 156.5 18.6C154.833 17.9 153.05 17.55 151.15 17.55C149.183 17.55 147.35 17.8833 145.65 18.55C143.983 19.2167 142.533 20.15 141.3 21.35C140.067 22.55 139.1 23.9833 138.4 25.65C137.733 27.2833 137.4 29.0667 137.4 31C137.4 32.9333 137.733 34.7333 138.4 36.4C139.1 38.0333 140.067 39.45 141.3 40.65C142.533 41.85 143.983 42.7833 145.65 43.45C147.35 44.1167 149.183 44.45 151.15 44.45C153.05 44.45 154.833 44.1167 156.5 43.45C158.167 42.75 159.667 41.6833 161 40.25L164.25 43.4C162.65 45.2 160.7 46.5667 158.4 47.5C156.133 48.4333 153.633 48.9 150.9 48.9ZM186.3 48.9C183.634 48.9 181.167 48.4667 178.9 47.6C176.667 46.7 174.717 45.45 173.05 43.85C171.417 42.2167 170.134 40.3167 169.2 38.15C168.267 35.9833 167.8 33.6 167.8 31C167.8 28.4 168.267 26.0167 169.2 23.85C170.134 21.6833 171.434 19.8 173.1 18.2C174.767 16.5667 176.717 15.3167 178.95 14.45C181.217 13.55 183.684 13.1 186.35 13.1C189.05 13.1 191.534 13.5667 193.8 14.5C196.1 15.4 198.05 16.75 199.65 18.55L196.4 21.7C195.067 20.3 193.567 19.2667 191.9 18.6C190.234 17.9 188.45 17.55 186.55 17.55C184.584 17.55 182.75 17.8833 181.05 18.55C179.384 19.2167 177.934 20.15 176.7 21.35C175.467 22.55 174.5 23.9833 173.8 25.65C173.134 27.2833 172.8 29.0667 172.8 31C172.8 32.9333 173.134 34.7333 173.8 36.4C174.5 38.0333 175.467 39.45 176.7 40.65C177.934 41.85 179.384 42.7833 181.05 43.45C182.75 44.1167 184.584 44.45 186.55 44.45C188.45 44.45 190.234 44.1167 191.9 43.45C193.567 42.75 195.067 41.6833 196.4 40.25L199.65 43.4C198.05 45.2 196.1 46.5667 193.8 47.5C191.534 48.4333 189.034 48.9 186.3 48.9ZM211.333 28.6H229.333V32.85H211.333V28.6ZM211.783 44.15H232.183V48.5H206.783V13.5H231.483V17.85H211.783V44.15ZM247.229 48.5V17.85H235.229V13.5H264.179V17.85H252.179V48.5H247.229Z" fill="white"/>
<path d="M102.95 30.5L110.6 19.875L110.575 23.4L103.225 13H108.8L113.5 19.775L111.125 19.8L115.75 13H121.1L113.75 23.2V19.7L121.5 30.5H115.8L111.025 23.375H113.3L108.6 30.5H102.95Z" fill="#EB0028"/>
<path d="M0.108 67L3.648 62.128V63.304L0.276 58.6H2.04L4.548 62.08L3.828 62.092L6.312 58.6H8.004L4.656 63.22V62.092L8.22 67H6.42L3.78 63.304H4.488L1.884 67H0.108Z" fill="#EB0028"/>
<path d="M11.804 61.852V60.904H17.18V61.852H11.804ZM11.804 64.696V63.748H17.18V64.696H11.804ZM23.259 67V60.64H24.411V67H23.259ZM23.835 59.416C23.611 59.416 23.423 59.344 23.271 59.2C23.127 59.056 23.055 58.88 23.055 58.672C23.055 58.456 23.127 58.276 23.271 58.132C23.423 57.988 23.611 57.916 23.835 57.916C24.059 57.916 24.243 57.988 24.387 58.132C24.539 58.268 24.615 58.44 24.615 58.648C24.615 58.864 24.543 59.048 24.399 59.2C24.255 59.344 24.067 59.416 23.835 59.416ZM30.4866 60.58C31.0066 60.58 31.4626 60.68 31.8546 60.88C32.2546 61.08 32.5666 61.384 32.7906 61.792C33.0146 62.2 33.1266 62.716 33.1266 63.34V67H31.9746V63.472C31.9746 62.856 31.8226 62.392 31.5186 62.08C31.2226 61.768 30.8026 61.612 30.2586 61.612C29.8506 61.612 29.4946 61.692 29.1906 61.852C28.8866 62.012 28.6506 62.248 28.4826 62.56C28.3226 62.872 28.2426 63.26 28.2426 63.724V67H27.0906V60.64H28.1946V62.356L28.0146 61.9C28.2226 61.484 28.5426 61.16 28.9746 60.928C29.4066 60.696 29.9106 60.58 30.4866 60.58ZM38.3666 67.072C37.7506 67.072 37.1986 66.936 36.7106 66.664C36.2306 66.392 35.8506 66.012 35.5706 65.524C35.2906 65.036 35.1506 64.468 35.1506 63.82C35.1506 63.172 35.2906 62.608 35.5706 62.128C35.8506 61.64 36.2306 61.26 36.7106 60.988C37.1986 60.716 37.7506 60.58 38.3666 60.58C38.9026 60.58 39.3866 60.7 39.8186 60.94C40.2506 61.18 40.5946 61.54 40.8506 62.02C41.1146 62.5 41.2466 63.1 41.2466 63.82C41.2466 64.54 41.1186 65.14 40.8626 65.62C40.6146 66.1 40.2746 66.464 39.8426 66.712C39.4106 66.952 38.9186 67.072 38.3666 67.072ZM38.4626 66.064C38.8626 66.064 39.2226 65.972 39.5426 65.788C39.8706 65.604 40.1266 65.344 40.3106 65.008C40.5026 64.664 40.5986 64.268 40.5986 63.82C40.5986 63.364 40.5026 62.972 40.3106 62.644C40.1266 62.308 39.8706 62.048 39.5426 61.864C39.2226 61.68 38.8626 61.588 38.4626 61.588C38.0546 61.588 37.6906 61.68 37.3706 61.864C37.0506 62.048 36.7946 62.308 36.6026 62.644C36.4106 62.972 36.3146 63.364 36.3146 63.82C36.3146 64.268 36.4106 64.664 36.6026 65.008C36.7946 65.344 37.0506 65.604 37.3706 65.788C37.6906 65.972 38.0546 66.064 38.4626 66.064ZM40.6346 67V65.284L40.7066 63.808L40.5866 62.332V58.096H41.7386V67H40.6346ZM47.2303 67.072C46.5503 67.072 45.9503 66.932 45.4303 66.652C44.9183 66.372 44.5183 65.988 44.2303 65.5C43.9503 65.012 43.8103 64.452 43.8103 63.82C43.8103 63.188 43.9463 62.628 44.2183 62.14C44.4983 61.652 44.8783 61.272 45.3583 61C45.8463 60.72 46.3943 60.58 47.0023 60.58C47.6183 60.58 48.1623 60.716 48.6343 60.988C49.1063 61.26 49.4743 61.644 49.7383 62.14C50.0103 62.628 50.1463 63.2 50.1463 63.856C50.1463 63.904 50.1423 63.96 50.1343 64.024C50.1343 64.088 50.1303 64.148 50.1223 64.204H44.7103V63.376H49.5223L49.0543 63.664C49.0623 63.256 48.9783 62.892 48.8023 62.572C48.6263 62.252 48.3823 62.004 48.0703 61.828C47.7663 61.644 47.4103 61.552 47.0023 61.552C46.6023 61.552 46.2463 61.644 45.9343 61.828C45.6223 62.004 45.3783 62.256 45.2023 62.584C45.0263 62.904 44.9383 63.272 44.9383 63.688V63.88C44.9383 64.304 45.0343 64.684 45.2263 65.02C45.4263 65.348 45.7023 65.604 46.0543 65.788C46.4063 65.972 46.8103 66.064 47.2663 66.064C47.6423 66.064 47.9823 66 48.2863 65.872C48.5983 65.744 48.8703 65.552 49.1023 65.296L49.7383 66.04C49.4503 66.376 49.0903 66.632 48.6583 66.808C48.2343 66.984 47.7583 67.072 47.2303 67.072ZM55.5979 67.072C55.0699 67.072 54.5859 66.952 54.1459 66.712C53.7139 66.464 53.3659 66.1 53.1019 65.62C52.8459 65.14 52.7179 64.54 52.7179 63.82C52.7179 63.1 52.8419 62.5 53.0899 62.02C53.3459 61.54 53.6899 61.18 54.1219 60.94C54.5619 60.7 55.0539 60.58 55.5979 60.58C56.2219 60.58 56.7739 60.716 57.2539 60.988C57.7339 61.26 58.1139 61.64 58.3939 62.128C58.6739 62.608 58.8139 63.172 58.8139 63.82C58.8139 64.468 58.6739 65.036 58.3939 65.524C58.1139 66.012 57.7339 66.392 57.2539 66.664C56.7739 66.936 56.2219 67.072 55.5979 67.072ZM52.2259 69.328V60.64H53.3299V62.356L53.2579 63.832L53.3779 65.308V69.328H52.2259ZM55.5019 66.064C55.9099 66.064 56.2739 65.972 56.5939 65.788C56.9219 65.604 57.1779 65.344 57.3619 65.008C57.5539 64.664 57.6499 64.268 57.6499 63.82C57.6499 63.364 57.5539 62.972 57.3619 62.644C57.1779 62.308 56.9219 62.048 56.5939 61.864C56.2739 61.68 55.9099 61.588 55.5019 61.588C55.1019 61.588 54.7379 61.68 54.4099 61.864C54.0899 62.048 53.8339 62.308 53.6419 62.644C53.4579 62.972 53.3659 63.364 53.3659 63.82C53.3659 64.268 53.4579 64.664 53.6419 65.008C53.8339 65.344 54.0899 65.604 54.4099 65.788C54.7379 65.972 55.1019 66.064 55.5019 66.064ZM63.7176 67.072C63.0376 67.072 62.4376 66.932 61.9176 66.652C61.4056 66.372 61.0056 65.988 60.7176 65.5C60.4376 65.012 60.2976 64.452 60.2976 63.82C60.2976 63.188 60.4336 62.628 60.7056 62.14C60.9856 61.652 61.3656 61.272 61.8456 61C62.3336 60.72 62.8816 60.58 63.4896 60.58C64.1056 60.58 64.6496 60.716 65.1216 60.988C65.5936 61.26 65.9616 61.644 66.2256 62.14C66.4976 62.628 66.6336 63.2 66.6336 63.856C66.6336 63.904 66.6296 63.96 66.6216 64.024C66.6216 64.088 66.6176 64.148 66.6096 64.204H61.1976V63.376H66.0096L65.5416 63.664C65.5496 63.256 65.4656 62.892 65.2896 62.572C65.1136 62.252 64.8696 62.004 64.5576 61.828C64.2536 61.644 63.8976 61.552 63.4896 61.552C63.0896 61.552 62.7336 61.644 62.4216 61.828C62.1096 62.004 61.8656 62.256 61.6896 62.584C61.5136 62.904 61.4256 63.272 61.4256 63.688V63.88C61.4256 64.304 61.5216 64.684 61.7136 65.02C61.9136 65.348 62.1896 65.604 62.5416 65.788C62.8936 65.972 63.2976 66.064 63.7536 66.064C64.1296 66.064 64.4696 66 64.7736 65.872C65.0856 65.744 65.3576 65.552 65.5896 65.296L66.2256 66.04C65.9376 66.376 65.5776 66.632 65.1456 66.808C64.7216 66.984 64.2456 67.072 63.7176 67.072ZM72.1093 60.58C72.6293 60.58 73.0853 60.68 73.4773 60.88C73.8773 61.08 74.1893 61.384 74.4133 61.792C74.6373 62.2 74.7493 62.716 74.7493 63.34V67H73.5973V63.472C73.5973 62.856 73.4453 62.392 73.1413 62.08C72.8453 61.768 72.4253 61.612 71.8813 61.612C71.4733 61.612 71.1173 61.692 70.8133 61.852C70.5093 62.012 70.2733 62.248 70.1053 62.56C69.9453 62.872 69.8653 63.26 69.8653 63.724V67H68.7133V60.64H69.8173V62.356L69.6373 61.9C69.8453 61.484 70.1653 61.16 70.5973 60.928C71.0293 60.696 71.5333 60.58 72.1093 60.58ZM79.9892 67.072C79.3732 67.072 78.8212 66.936 78.3332 66.664C77.8532 66.392 77.4732 66.012 77.1932 65.524C76.9132 65.036 76.7732 64.468 76.7732 63.82C76.7732 63.172 76.9132 62.608 77.1932 62.128C77.4732 61.64 77.8532 61.26 78.3332 60.988C78.8212 60.716 79.3732 60.58 79.9892 60.58C80.5252 60.58 81.0092 60.7 81.4412 60.94C81.8732 61.18 82.2172 61.54 82.4732 62.02C82.7372 62.5 82.8692 63.1 82.8692 63.82C82.8692 64.54 82.7412 65.14 82.4852 65.62C82.2372 66.1 81.8972 66.464 81.4652 66.712C81.0332 66.952 80.5412 67.072 79.9892 67.072ZM80.0852 66.064C80.4852 66.064 80.8452 65.972 81.1652 65.788C81.4932 65.604 81.7492 65.344 81.9332 65.008C82.1252 64.664 82.2212 64.268 82.2212 63.82C82.2212 63.364 82.1252 62.972 81.9332 62.644C81.7492 62.308 81.4932 62.048 81.1652 61.864C80.8452 61.68 80.4852 61.588 80.0852 61.588C79.6772 61.588 79.3132 61.68 78.9932 61.864C78.6732 62.048 78.4172 62.308 78.2252 62.644C78.0332 62.972 77.9372 63.364 77.9372 63.82C77.9372 64.268 78.0332 64.664 78.2252 65.008C78.4172 65.344 78.6732 65.604 78.9932 65.788C79.3132 65.972 79.6772 66.064 80.0852 66.064ZM82.2572 67V65.284L82.3292 63.808L82.2092 62.332V58.096H83.3612V67H82.2572ZM88.8529 67.072C88.1729 67.072 87.5729 66.932 87.0529 66.652C86.5409 66.372 86.1409 65.988 85.8529 65.5C85.5729 65.012 85.4329 64.452 85.4329 63.82C85.4329 63.188 85.5689 62.628 85.8409 62.14C86.1209 61.652 86.5009 61.272 86.9809 61C87.4689 60.72 88.0169 60.58 88.6249 60.58C89.2409 60.58 89.7849 60.716 90.2569 60.988C90.7289 61.26 91.0969 61.644 91.3609 62.14C91.6329 62.628 91.7689 63.2 91.7689 63.856C91.7689 63.904 91.7649 63.96 91.7569 64.024C91.7569 64.088 91.7529 64.148 91.7449 64.204H86.3329V63.376H91.1449L90.6769 63.664C90.6849 63.256 90.6009 62.892 90.4249 62.572C90.2489 62.252 90.0049 62.004 89.6929 61.828C89.3889 61.644 89.0329 61.552 88.6249 61.552C88.2249 61.552 87.8689 61.644 87.5569 61.828C87.2449 62.004 87.0009 62.256 86.8249 62.584C86.6489 62.904 86.5609 63.272 86.5609 63.688V63.88C86.5609 64.304 86.6569 64.684 86.8489 65.02C87.0489 65.348 87.3249 65.604 87.6769 65.788C88.0289 65.972 88.4329 66.064 88.8889 66.064C89.2649 66.064 89.6049 66 89.9089 65.872C90.2209 65.744 90.4929 65.552 90.7249 65.296L91.3609 66.04C91.0729 66.376 90.7129 66.632 90.2809 66.808C89.8569 66.984 89.3809 67.072 88.8529 67.072ZM97.2446 60.58C97.7646 60.58 98.2206 60.68 98.6126 60.88C99.0126 61.08 99.3246 61.384 99.5486 61.792C99.7726 62.2 99.8846 62.716 99.8846 63.34V67H98.7326V63.472C98.7326 62.856 98.5806 62.392 98.2766 62.08C97.9806 61.768 97.5606 61.612 97.0166 61.612C96.6086 61.612 96.2526 61.692 95.9486 61.852C95.6446 62.012 95.4086 62.248 95.2406 62.56C95.0806 62.872 95.0006 63.26 95.0006 63.724V67H93.8486V60.64H94.9526V62.356L94.7726 61.9C94.9806 61.484 95.3006 61.16 95.7326 60.928C96.1646 60.696 96.6686 60.58 97.2446 60.58ZM104.681 67.072C104.041 67.072 103.545 66.9 103.193 66.556C102.841 66.212 102.665 65.72 102.665 65.08V59.248H103.817V65.032C103.817 65.376 103.901 65.64 104.069 65.824C104.245 66.008 104.493 66.1 104.813 66.1C105.173 66.1 105.473 66 105.713 65.8L106.073 66.628C105.897 66.78 105.685 66.892 105.437 66.964C105.197 67.036 104.945 67.072 104.681 67.072ZM101.585 61.588V60.64H105.641V61.588H101.585ZM107.945 67V58.096H109.097V67H107.945ZM112.053 69.4C111.749 69.4 111.453 69.348 111.165 69.244C110.877 69.148 110.629 69.004 110.421 68.812L110.913 67.948C111.073 68.1 111.249 68.216 111.441 68.296C111.633 68.376 111.837 68.416 112.053 68.416C112.333 68.416 112.565 68.344 112.749 68.2C112.933 68.056 113.105 67.8 113.265 67.432L113.661 66.556L113.781 66.412L116.277 60.64H117.405L114.321 67.636C114.137 68.084 113.929 68.436 113.697 68.692C113.473 68.948 113.225 69.128 112.953 69.232C112.681 69.344 112.381 69.4 112.053 69.4ZM113.565 67.204L110.661 60.64H111.861L114.333 66.304L113.565 67.204ZM125.387 67.072C124.747 67.072 124.179 66.932 123.683 66.652C123.187 66.372 122.795 65.988 122.507 65.5C122.219 65.004 122.075 64.444 122.075 63.82C122.075 63.188 122.219 62.628 122.507 62.14C122.795 61.652 123.187 61.272 123.683 61C124.179 60.72 124.747 60.58 125.387 60.58C126.019 60.58 126.583 60.72 127.079 61C127.583 61.272 127.975 61.652 128.255 62.14C128.543 62.62 128.687 63.18 128.687 63.82C128.687 64.452 128.543 65.012 128.255 65.5C127.975 65.988 127.583 66.372 127.079 66.652C126.583 66.932 126.019 67.072 125.387 67.072ZM125.387 66.064C125.795 66.064 126.159 65.972 126.479 65.788C126.807 65.604 127.063 65.344 127.247 65.008C127.431 64.664 127.523 64.268 127.523 63.82C127.523 63.364 127.431 62.972 127.247 62.644C127.063 62.308 126.807 62.048 126.479 61.864C126.159 61.68 125.795 61.588 125.387 61.588C124.979 61.588 124.615 61.68 124.295 61.864C123.975 62.048 123.719 62.308 123.527 62.644C123.335 62.972 123.239 63.364 123.239 63.82C123.239 64.268 123.335 64.664 123.527 65.008C123.719 65.344 123.975 65.604 124.295 65.788C124.615 65.972 124.979 66.064 125.387 66.064ZM130.76 67V60.64H131.864V62.368L131.756 61.936C131.932 61.496 132.228 61.16 132.644 60.928C133.06 60.696 133.572 60.58 134.18 60.58V61.696C134.132 61.688 134.084 61.684 134.036 61.684C133.996 61.684 133.956 61.684 133.916 61.684C133.3 61.684 132.812 61.868 132.452 62.236C132.092 62.604 131.912 63.136 131.912 63.832V67H130.76ZM138.805 69.4C138.221 69.4 137.653 69.316 137.101 69.148C136.557 68.988 136.113 68.756 135.769 68.452L136.321 67.564C136.617 67.82 136.981 68.02 137.413 68.164C137.845 68.316 138.297 68.392 138.769 68.392C139.521 68.392 140.073 68.216 140.425 67.864C140.777 67.512 140.953 66.976 140.953 66.256V64.912L141.073 63.652L141.013 62.38V60.64H142.105V66.136C142.105 67.256 141.825 68.08 141.265 68.608C140.705 69.136 139.885 69.4 138.805 69.4ZM138.661 66.736C138.045 66.736 137.493 66.608 137.005 66.352C136.525 66.088 136.141 65.724 135.853 65.26C135.573 64.796 135.433 64.26 135.433 63.652C135.433 63.036 135.573 62.5 135.853 62.044C136.141 61.58 136.525 61.22 137.005 60.964C137.493 60.708 138.045 60.58 138.661 60.58C139.205 60.58 139.701 60.692 140.149 60.916C140.597 61.132 140.953 61.468 141.217 61.924C141.489 62.38 141.625 62.956 141.625 63.652C141.625 64.34 141.489 64.912 141.217 65.368C140.953 65.824 140.597 66.168 140.149 66.4C139.701 66.624 139.205 66.736 138.661 66.736ZM138.793 65.728C139.217 65.728 139.593 65.64 139.921 65.464C140.249 65.288 140.505 65.044 140.689 64.732C140.881 64.42 140.977 64.06 140.977 63.652C140.977 63.244 140.881 62.884 140.689 62.572C140.505 62.26 140.249 62.02 139.921 61.852C139.593 61.676 139.217 61.588 138.793 61.588C138.369 61.588 137.989 61.676 137.653 61.852C137.325 62.02 137.065 62.26 136.873 62.572C136.689 62.884 136.597 63.244 136.597 63.652C136.597 64.06 136.689 64.42 136.873 64.732C137.065 65.044 137.325 65.288 137.653 65.464C137.989 65.64 138.369 65.728 138.793 65.728ZM148.734 67V65.656L148.674 65.404V63.112C148.674 62.624 148.53 62.248 148.242 61.984C147.962 61.712 147.538 61.576 146.97 61.576C146.594 61.576 146.226 61.64 145.866 61.768C145.506 61.888 145.202 62.052 144.954 62.26L144.474 61.396C144.802 61.132 145.194 60.932 145.65 60.796C146.114 60.652 146.598 60.58 147.102 60.58C147.974 60.58 148.646 60.792 149.118 61.216C149.59 61.64 149.826 62.288 149.826 63.16V67H148.734ZM146.646 67.072C146.174 67.072 145.758 66.992 145.398 66.832C145.046 66.672 144.774 66.452 144.582 66.172C144.39 65.884 144.294 65.56 144.294 65.2C144.294 64.856 144.374 64.544 144.534 64.264C144.702 63.984 144.97 63.76 145.338 63.592C145.714 63.424 146.218 63.34 146.85 63.34H148.866V64.168H146.898C146.322 64.168 145.934 64.264 145.734 64.456C145.534 64.648 145.434 64.88 145.434 65.152C145.434 65.464 145.558 65.716 145.806 65.908C146.054 66.092 146.398 66.184 146.838 66.184C147.27 66.184 147.646 66.088 147.966 65.896C148.294 65.704 148.53 65.424 148.674 65.056L148.902 65.848C148.75 66.224 148.482 66.524 148.098 66.748C147.714 66.964 147.23 67.072 146.646 67.072ZM155.834 60.58C156.354 60.58 156.81 60.68 157.202 60.88C157.602 61.08 157.914 61.384 158.138 61.792C158.362 62.2 158.474 62.716 158.474 63.34V67H157.322V63.472C157.322 62.856 157.17 62.392 156.866 62.08C156.57 61.768 156.15 61.612 155.606 61.612C155.198 61.612 154.842 61.692 154.538 61.852C154.234 62.012 153.998 62.248 153.83 62.56C153.67 62.872 153.59 63.26 153.59 63.724V67H152.438V60.64H153.542V62.356L153.362 61.9C153.57 61.484 153.89 61.16 154.322 60.928C154.754 60.696 155.258 60.58 155.834 60.58ZM161.086 67V60.64H162.238V67H161.086ZM161.662 59.416C161.438 59.416 161.25 59.344 161.098 59.2C160.954 59.056 160.882 58.88 160.882 58.672C160.882 58.456 160.954 58.276 161.098 58.132C161.25 57.988 161.438 57.916 161.662 57.916C161.886 57.916 162.07 57.988 162.214 58.132C162.366 58.268 162.442 58.44 162.442 58.648C162.442 58.864 162.37 59.048 162.226 59.2C162.082 59.344 161.894 59.416 161.662 59.416ZM164.306 67V66.256L168.386 61.192L168.614 61.588H164.378V60.64H169.538V61.396L165.458 66.448L165.194 66.052H169.634V67H164.306ZM174.394 67.072C173.714 67.072 173.114 66.932 172.594 66.652C172.082 66.372 171.682 65.988 171.394 65.5C171.114 65.012 170.974 64.452 170.974 63.82C170.974 63.188 171.11 62.628 171.382 62.14C171.662 61.652 172.042 61.272 172.522 61C173.01 60.72 173.558 60.58 174.166 60.58C174.782 60.58 175.326 60.716 175.798 60.988C176.27 61.26 176.638 61.644 176.902 62.14C177.174 62.628 177.31 63.2 177.31 63.856C177.31 63.904 177.306 63.96 177.298 64.024C177.298 64.088 177.294 64.148 177.286 64.204H171.874V63.376H176.686L176.218 63.664C176.226 63.256 176.142 62.892 175.966 62.572C175.79 62.252 175.546 62.004 175.234 61.828C174.93 61.644 174.574 61.552 174.166 61.552C173.766 61.552 173.41 61.644 173.098 61.828C172.786 62.004 172.542 62.256 172.366 62.584C172.19 62.904 172.102 63.272 172.102 63.688V63.88C172.102 64.304 172.198 64.684 172.39 65.02C172.59 65.348 172.866 65.604 173.218 65.788C173.57 65.972 173.974 66.064 174.43 66.064C174.806 66.064 175.146 66 175.45 65.872C175.762 65.744 176.034 65.552 176.266 65.296L176.902 66.04C176.614 66.376 176.254 66.632 175.822 66.808C175.398 66.984 174.922 67.072 174.394 67.072ZM182.017 67.072C181.401 67.072 180.849 66.936 180.361 66.664C179.881 66.392 179.501 66.012 179.221 65.524C178.941 65.036 178.801 64.468 178.801 63.82C178.801 63.172 178.941 62.608 179.221 62.128C179.501 61.64 179.881 61.26 180.361 60.988C180.849 60.716 181.401 60.58 182.017 60.58C182.553 60.58 183.037 60.7 183.469 60.94C183.901 61.18 184.245 61.54 184.501 62.02C184.765 62.5 184.897 63.1 184.897 63.82C184.897 64.54 184.769 65.14 184.513 65.62C184.265 66.1 183.925 66.464 183.493 66.712C183.061 66.952 182.569 67.072 182.017 67.072ZM182.113 66.064C182.513 66.064 182.873 65.972 183.193 65.788C183.521 65.604 183.777 65.344 183.961 65.008C184.153 64.664 184.249 64.268 184.249 63.82C184.249 63.364 184.153 62.972 183.961 62.644C183.777 62.308 183.521 62.048 183.193 61.864C182.873 61.68 182.513 61.588 182.113 61.588C181.705 61.588 181.341 61.68 181.021 61.864C180.701 62.048 180.445 62.308 180.253 62.644C180.061 62.972 179.965 63.364 179.965 63.82C179.965 64.268 180.061 64.664 180.253 65.008C180.445 65.344 180.701 65.604 181.021 65.788C181.341 65.972 181.705 66.064 182.113 66.064ZM184.285 67V65.284L184.357 63.808L184.237 62.332V58.096H185.389V67H184.285ZM193.588 67V59.644H190.708V58.6H197.656V59.644H194.776V67H193.588ZM200.535 62.224H204.855V63.244H200.535V62.224ZM200.643 65.956H205.539V67H199.443V58.6H205.371V59.644H200.643V65.956ZM207.962 67V58.6H211.502C212.398 58.6 213.186 58.776 213.866 59.128C214.554 59.48 215.086 59.972 215.462 60.604C215.846 61.236 216.038 61.968 216.038 62.8C216.038 63.632 215.846 64.364 215.462 64.996C215.086 65.628 214.554 66.12 213.866 66.472C213.186 66.824 212.398 67 211.502 67H207.962ZM209.162 65.956H211.43C212.126 65.956 212.726 65.824 213.23 65.56C213.742 65.296 214.138 64.928 214.418 64.456C214.698 63.976 214.838 63.424 214.838 62.8C214.838 62.168 214.698 61.616 214.418 61.144C214.138 60.672 213.742 60.304 213.23 60.04C212.726 59.776 212.126 59.644 211.43 59.644H209.162V65.956ZM224.722 67.072C224.042 67.072 223.442 66.932 222.922 66.652C222.41 66.372 222.01 65.988 221.722 65.5C221.442 65.012 221.302 64.452 221.302 63.82C221.302 63.188 221.438 62.628 221.71 62.14C221.99 61.652 222.37 61.272 222.85 61C223.338 60.72 223.886 60.58 224.494 60.58C225.11 60.58 225.654 60.716 226.126 60.988C226.598 61.26 226.966 61.644 227.23 62.14C227.502 62.628 227.638 63.2 227.638 63.856C227.638 63.904 227.634 63.96 227.626 64.024C227.626 64.088 227.622 64.148 227.614 64.204H222.202V63.376H227.014L226.546 63.664C226.554 63.256 226.47 62.892 226.294 62.572C226.118 62.252 225.874 62.004 225.562 61.828C225.258 61.644 224.902 61.552 224.494 61.552C224.094 61.552 223.738 61.644 223.426 61.828C223.114 62.004 222.87 62.256 222.694 62.584C222.518 62.904 222.43 63.272 222.43 63.688V63.88C222.43 64.304 222.526 64.684 222.718 65.02C222.918 65.348 223.194 65.604 223.546 65.788C223.898 65.972 224.302 66.064 224.758 66.064C225.134 66.064 225.474 66 225.778 65.872C226.09 65.744 226.362 65.552 226.594 65.296L227.23 66.04C226.942 66.376 226.582 66.632 226.15 66.808C225.726 66.984 225.25 67.072 224.722 67.072ZM231.269 67L228.485 60.64H229.685L232.157 66.4H231.581L234.101 60.64H235.229L232.445 67H231.269ZM239.44 67.072C238.76 67.072 238.16 66.932 237.64 66.652C237.128 66.372 236.728 65.988 236.44 65.5C236.16 65.012 236.02 64.452 236.02 63.82C236.02 63.188 236.156 62.628 236.428 62.14C236.708 61.652 237.088 61.272 237.568 61C238.056 60.72 238.604 60.58 239.212 60.58C239.828 60.58 240.372 60.716 240.844 60.988C241.316 61.26 241.684 61.644 241.948 62.14C242.22 62.628 242.356 63.2 242.356 63.856C242.356 63.904 242.352 63.96 242.344 64.024C242.344 64.088 242.34 64.148 242.332 64.204H236.92V63.376H241.732L241.264 63.664C241.272 63.256 241.188 62.892 241.012 62.572C240.836 62.252 240.592 62.004 240.28 61.828C239.976 61.644 239.62 61.552 239.212 61.552C238.812 61.552 238.456 61.644 238.144 61.828C237.832 62.004 237.588 62.256 237.412 62.584C237.236 62.904 237.148 63.272 237.148 63.688V63.88C237.148 64.304 237.244 64.684 237.436 65.02C237.636 65.348 237.912 65.604 238.264 65.788C238.616 65.972 239.02 66.064 239.476 66.064C239.852 66.064 240.192 66 240.496 65.872C240.808 65.744 241.08 65.552 241.312 65.296L241.948 66.04C241.66 66.376 241.3 66.632 240.868 66.808C240.444 66.984 239.968 67.072 239.44 67.072ZM247.832 60.58C248.352 60.58 248.808 60.68 249.2 60.88C249.6 61.08 249.912 61.384 250.136 61.792C250.36 62.2 250.472 62.716 250.472 63.34V67H249.32V63.472C249.32 62.856 249.168 62.392 248.864 62.08C248.568 61.768 248.148 61.612 247.604 61.612C247.196 61.612 246.84 61.692 246.536 61.852C246.232 62.012 245.996 62.248 245.828 62.56C245.668 62.872 245.588 63.26 245.588 63.724V67H244.436V60.64H245.54V62.356L245.36 61.9C245.568 61.484 245.888 61.16 246.32 60.928C246.752 60.696 247.256 60.58 247.832 60.58ZM255.268 67.072C254.628 67.072 254.132 66.9 253.78 66.556C253.428 66.212 253.252 65.72 253.252 65.08V59.248H254.404V65.032C254.404 65.376 254.488 65.64 254.656 65.824C254.832 66.008 255.08 66.1 255.4 66.1C255.76 66.1 256.06 66 256.3 65.8L256.66 66.628C256.484 66.78 256.272 66.892 256.024 66.964C255.784 67.036 255.532 67.072 255.268 67.072ZM252.172 61.588V60.64H256.228V61.588H252.172Z" fill="white"/>
</svg>
