<svg width="153" height="21" viewBox="0 0 153 21" fill="none" xmlns="http://www.w3.org/2000/svg">
<path d="M142.927 21V2.61H135.88V0H152.88V2.61H145.833V21H142.927Z" fill="white"/>
<path d="M121.567 9.06H132.197V11.61H121.567V9.06ZM121.833 18.39H133.88V21H118.88V0H133.467V2.61H121.833V18.39Z" fill="white"/>
<path d="M105.916 21C104.325 21 102.854 20.7458 101.502 20.2374C100.169 19.7095 99.0061 18.9763 98.0119 18.0377C97.0375 17.0796 96.272 15.9651 95.7152 14.6941C95.1584 13.4232 94.88 12.0251 94.88 10.5C94.88 8.97486 95.1584 7.57681 95.7152 6.30587C96.272 5.03492 97.0475 3.93017 98.0417 2.99162C99.036 2.03352 100.199 1.30028 101.532 0.791898C102.884 0.263967 104.355 0 105.946 0C107.557 0 109.038 0.273743 110.39 0.821229C111.762 1.34916 112.926 2.14106 113.88 3.19693L111.941 5.04469C111.146 4.22346 110.251 3.61732 109.257 3.22626C108.263 2.81564 107.199 2.61033 106.065 2.61033C104.892 2.61033 103.798 2.80587 102.784 3.19693C101.79 3.58799 100.925 4.13547 100.189 4.83938C99.4536 5.5433 98.8769 6.38408 98.4593 7.36173C98.0616 8.31983 97.8628 9.36592 97.8628 10.5C97.8628 11.6341 98.0616 12.6899 98.4593 13.6676C98.8769 14.6257 99.4536 15.4567 100.189 16.1606C100.925 16.8645 101.79 17.412 102.784 17.8031C103.798 18.1941 104.892 18.3897 106.065 18.3897C107.199 18.3897 108.263 18.1941 109.257 17.8031C110.251 17.3925 111.146 16.7668 111.941 15.926L113.88 17.7737C112.926 18.8296 111.762 19.6313 110.39 20.1788C109.038 20.7263 107.547 21 105.916 21Z" fill="white"/>
<path d="M84.9161 21C83.3253 21 81.8539 20.7458 80.5017 20.2374C79.1694 19.7095 78.0061 18.9763 77.0119 18.0377C76.0375 17.0796 75.272 15.9651 74.7152 14.6941C74.1584 13.4232 73.88 12.0251 73.88 10.5C73.88 8.97486 74.1584 7.57681 74.7152 6.30587C75.272 5.03492 76.0475 3.93017 77.0417 2.99162C78.036 2.03352 79.1992 1.30028 80.5315 0.791898C81.8837 0.263967 83.3552 0 84.946 0C86.5566 0 88.0381 0.273743 89.3902 0.821229C90.7623 1.34916 91.9256 2.14106 92.88 3.19693L90.9413 5.04469C90.1459 4.22346 89.251 3.61732 88.2568 3.22626C87.2626 2.81564 86.1987 2.61033 85.0653 2.61033C83.8921 2.61033 82.7984 2.80587 81.7843 3.19693C80.79 3.58799 79.925 4.13547 79.1893 4.83938C78.4536 5.5433 77.8769 6.38408 77.4593 7.36173C77.0616 8.31983 76.8628 9.36592 76.8628 10.5C76.8628 11.6341 77.0616 12.6899 77.4593 13.6676C77.8769 14.6257 78.4536 15.4567 79.1893 16.1606C79.925 16.8645 80.79 17.412 81.7843 17.8031C82.7984 18.1941 83.8921 18.3897 85.0653 18.3897C86.1987 18.3897 87.2626 18.1941 88.2568 17.8031C89.251 17.3925 90.1459 16.7668 90.9413 15.926L92.88 17.7737C91.9256 18.8296 90.7623 19.6313 89.3902 20.1788C88.0381 20.7263 86.5467 21 84.9161 21Z" fill="white"/>
<path d="M62 12L66.59 5.625L66.575 7.74L62.165 1.5H65.51L68.33 5.565L66.905 5.58L69.68 1.5H72.89L68.48 7.62V5.52L73.13 12H69.71L66.845 7.725H68.21L65.39 12H62Z" fill="#EB0028"/>
<path d="M6.06103 21V6.007H0.116028V0.699999H18.85V6.007H12.905V21H6.06103Z" fill="#EB0028"/>
<path d="M26.8916 8.24H35.9396V13.17H26.8916V8.24ZM27.3556 15.838H37.5056V21H20.6276V0.699999H37.1286V5.862H27.3556V15.838Z" fill="#EB0028"/>
<path d="M40.1403 21V0.699999H50.1453C52.4073 0.699999 54.3987 1.11567 56.1193 1.947C57.84 2.759 59.1837 3.919 60.1503 5.427C61.117 6.935 61.6003 8.733 61.6003 10.821C61.6003 12.9283 61.117 14.7457 60.1503 16.273C59.1837 17.781 57.84 18.9507 56.1193 19.782C54.3987 20.594 52.4073 21 50.1453 21H40.1403ZM46.9843 15.664H49.8553C50.822 15.664 51.663 15.4803 52.3783 15.113C53.113 14.7457 53.6833 14.2043 54.0893 13.489C54.4953 12.7543 54.6983 11.865 54.6983 10.821C54.6983 9.79633 54.4953 8.92633 54.0893 8.211C53.6833 7.49567 53.113 6.95433 52.3783 6.587C51.663 6.21967 50.822 6.036 49.8553 6.036H46.9843V15.664Z" fill="#EB0028"/>
</svg>
